<?xml version="1.0" encoding="UTF-8" standalone="no"?><!DOCTYPE svg PUBLIC "-//W3C//DTD SVG 1.1//EN" "http://www.w3.org/Graphics/SVG/1.1/DTD/svg11.dtd"><!-- Generated by graphviz version 2.40.1 (20161225.0304)
 --><!-- Title: batch&#45;processing&#45;demo Pages: 1 --><svg xmlns="http://www.w3.org/2000/svg" xmlns:xlink="http://www.w3.org/1999/xlink" width="3508pt" height="404pt" viewBox="0.00 0.00 3508.23 404.00">
<g id="graph0" class="graph" transform="scale(1 1) rotate(0) translate(4 400)">
<title>batch-processing-demo</title>
<polygon fill="#ffffff" stroke="transparent" points="-4,4 -4,-400 3504.2307,-400 3504.2307,4 -4,4"/>
<!-- org.springframework.boot:spring&#45;boot&#45;starter:jar -->
<g id="node1" class="node">
<title>org.springframework.boot:spring-boot-starter:jar</title>
<path fill="none" stroke="#000000" d="M533.3497,-252C533.3497,-252 426.6643,-252 426.6643,-252 420.6643,-252 414.6643,-246 414.6643,-240 414.6643,-240 414.6643,-228 414.6643,-228 414.6643,-222 420.6643,-216 426.6643,-216 426.6643,-216 533.3497,-216 533.3497,-216 539.3497,-216 545.3497,-222 545.3497,-228 545.3497,-228 545.3497,-240 545.3497,-240 545.3497,-246 539.3497,-252 533.3497,-252"/>
<text text-anchor="start" x="422.8359" y="-229.8" font-family="Helvetica,sans-Serif" font-size="14.00" fill="#000000">spring-boot-starter</text>
</g>
<!-- org.springframework.boot:spring&#45;boot:jar -->
<g id="node2" class="node">
<title>org.springframework.boot:spring-boot:jar</title>
<path fill="none" stroke="#000000" d="M74.021,-180C74.021,-180 11.993,-180 11.993,-180 5.993,-180 -.007,-174 -.007,-168 -.007,-168 -.007,-156 -.007,-156 -.007,-150 5.993,-144 11.993,-144 11.993,-144 74.021,-144 74.021,-144 80.021,-144 86.021,-150 86.021,-156 86.021,-156 86.021,-168 86.021,-168 86.021,-174 80.021,-180 74.021,-180"/>
<text text-anchor="start" x="8" y="-157.8" font-family="Helvetica,sans-Serif" font-size="14.00" fill="#000000">spring-boot</text>
</g>
<!-- org.springframework.boot:spring&#45;boot&#45;starter:jar&#45;&gt;org.springframework.boot:spring&#45;boot:jar -->
<g id="edge1" class="edge">
<title>org.springframework.boot:spring-boot-starter:jar-&gt;org.springframework.boot:spring-boot:jar</title>
<path fill="none" stroke="#000000" d="M414.5718,-228.718C339.4952,-221.7895 212.7425,-207.4371 96.0482,-180.0097"/>
<polygon fill="#000000" stroke="#000000" points="96.7712,-176.584 86.2317,-177.6654 95.1452,-183.3925 96.7712,-176.584"/>
</g>
<!-- org.springframework.boot:spring&#45;boot&#45;autoconfigure:jar -->
<g id="node3" class="node">
<title>org.springframework.boot:spring-boot-autoconfigure:jar</title>
<path fill="none" stroke="#000000" d="M267.9915,-180C267.9915,-180 116.0225,-180 116.0225,-180 110.0225,-180 104.0225,-174 104.0225,-168 104.0225,-168 104.0225,-156 104.0225,-156 104.0225,-150 110.0225,-144 116.0225,-144 116.0225,-144 267.9915,-144 267.9915,-144 273.9915,-144 279.9915,-150 279.9915,-156 279.9915,-156 279.9915,-168 279.9915,-168 279.9915,-174 273.9915,-180 267.9915,-180"/>
<text text-anchor="start" x="112.2651" y="-157.8" font-family="Helvetica,sans-Serif" font-size="14.00" fill="#000000">spring-boot-autoconfigure</text>
</g>
<!-- org.springframework.boot:spring&#45;boot&#45;starter:jar&#45;&gt;org.springframework.boot:spring&#45;boot&#45;autoconfigure:jar -->
<g id="edge2" class="edge">
<title>org.springframework.boot:spring-boot-starter:jar-&gt;org.springframework.boot:spring-boot-autoconfigure:jar</title>
<path fill="none" stroke="#000000" d="M414.6553,-217.6621C372.9965,-207.2474 318.6697,-193.6657 274.1094,-182.5256"/>
<polygon fill="#000000" stroke="#000000" points="274.7267,-179.0723 264.1764,-180.0423 273.0289,-185.8633 274.7267,-179.0723"/>
</g>
<!-- org.springframework.boot:spring&#45;boot&#45;starter&#45;logging:jar -->
<g id="node6" class="node">
<title>org.springframework.boot:spring-boot-starter-logging:jar</title>
<path fill="none" stroke="#000000" d="M466.136,-180C466.136,-180 309.878,-180 309.878,-180 303.878,-180 297.878,-174 297.878,-168 297.878,-168 297.878,-156 297.878,-156 297.878,-150 303.878,-144 309.878,-144 309.878,-144 466.136,-144 466.136,-144 472.136,-144 478.136,-150 478.136,-156 478.136,-156 478.136,-168 478.136,-168 478.136,-174 472.136,-180 466.136,-180"/>
<text text-anchor="start" x="305.9425" y="-157.8" font-family="Helvetica,sans-Serif" font-size="14.00" fill="#000000">spring-boot-starter-logging</text>
</g>
<!-- org.springframework.boot:spring&#45;boot&#45;starter:jar&#45;&gt;org.springframework.boot:spring&#45;boot&#45;starter&#45;logging:jar -->
<g id="edge8" class="edge">
<title>org.springframework.boot:spring-boot-starter:jar-&gt;org.springframework.boot:spring-boot-starter-logging:jar</title>
<path fill="none" stroke="#000000" d="M456.7915,-215.8314C445.46,-206.9632 431.6606,-196.1637 419.4043,-186.5718"/>
<polygon fill="#000000" stroke="#000000" points="421.2472,-183.5697 411.2151,-180.1628 416.933,-189.0822 421.2472,-183.5697"/>
</g>
<!-- jakarta.annotation:jakarta.annotation&#45;api:jar -->
<g id="node10" class="node">
<title>jakarta.annotation:jakarta.annotation-api:jar</title>
<path fill="none" stroke="#000000" d="M634.1021,-180C634.1021,-180 507.9119,-180 507.9119,-180 501.9119,-180 495.9119,-174 495.9119,-168 495.9119,-168 495.9119,-156 495.9119,-156 495.9119,-150 501.9119,-144 507.9119,-144 507.9119,-144 634.1021,-144 634.1021,-144 640.1021,-144 646.1021,-150 646.1021,-156 646.1021,-156 646.1021,-168 646.1021,-168 646.1021,-174 640.1021,-180 634.1021,-180"/>
<text text-anchor="start" x="503.7097" y="-157.8" font-family="Helvetica,sans-Serif" font-size="14.00" fill="#000000">jakarta.annotation-api</text>
</g>
<!-- org.springframework.boot:spring&#45;boot&#45;starter:jar&#45;&gt;jakarta.annotation:jakarta.annotation&#45;api:jar -->
<g id="edge9" class="edge">
<title>org.springframework.boot:spring-boot-starter:jar-&gt;jakarta.annotation:jakarta.annotation-api:jar</title>
<path fill="none" stroke="#000000" d="M502.9701,-215.8314C514.1785,-206.9632 527.8279,-196.1637 539.9509,-186.5718"/>
<polygon fill="#000000" stroke="#000000" points="542.3807,-189.1125 548.0512,-180.1628 538.0373,-183.6229 542.3807,-189.1125"/>
</g>
<!-- org.yaml:snakeyaml:jar -->
<g id="node11" class="node">
<title>org.yaml:snakeyaml:jar</title>
<path fill="none" stroke="#000000" d="M735.4047,-180C735.4047,-180 676.6093,-180 676.6093,-180 670.6093,-180 664.6093,-174 664.6093,-168 664.6093,-168 664.6093,-156 664.6093,-156 664.6093,-150 670.6093,-144 676.6093,-144 676.6093,-144 735.4047,-144 735.4047,-144 741.4047,-144 747.4047,-150 747.4047,-156 747.4047,-156 747.4047,-168 747.4047,-168 747.4047,-174 741.4047,-180 735.4047,-180"/>
<text text-anchor="start" x="672.5582" y="-157.8" font-family="Helvetica,sans-Serif" font-size="14.00" fill="#000000">snakeyaml</text>
</g>
<!-- org.springframework.boot:spring&#45;boot&#45;starter:jar&#45;&gt;org.yaml:snakeyaml:jar -->
<g id="edge10" class="edge">
<title>org.springframework.boot:spring-boot-starter:jar-&gt;org.yaml:snakeyaml:jar</title>
<path fill="none" stroke="#000000" d="M540.5345,-215.9739C574.3228,-205.7481 617.1205,-192.5256 655.007,-180 655.1045,-179.9678 655.2021,-179.9355 655.2998,-179.9031"/>
<polygon fill="#000000" stroke="#000000" points="656.2228,-183.2855 664.5823,-176.7763 653.9882,-176.6518 656.2228,-183.2855"/>
</g>
<!-- ch.qos.logback:logback&#45;classic:jar -->
<g id="node4" class="node">
<title>ch.qos.logback:logback-classic:jar</title>
<path fill="none" stroke="#000000" d="M312.4005,-108C312.4005,-108 225.6135,-108 225.6135,-108 219.6135,-108 213.6135,-102 213.6135,-96 213.6135,-96 213.6135,-84 213.6135,-84 213.6135,-78 219.6135,-72 225.6135,-72 225.6135,-72 312.4005,-72 312.4005,-72 318.4005,-72 324.4005,-78 324.4005,-84 324.4005,-84 324.4005,-96 324.4005,-96 324.4005,-102 318.4005,-108 312.4005,-108"/>
<text text-anchor="start" x="221.5603" y="-85.8" font-family="Helvetica,sans-Serif" font-size="14.00" fill="#000000">logback-classic</text>
</g>
<!-- ch.qos.logback:logback&#45;core:jar -->
<g id="node5" class="node">
<title>ch.qos.logback:logback-core:jar</title>
<path fill="none" stroke="#000000" d="M305.1305,-36C305.1305,-36 232.8835,-36 232.8835,-36 226.8835,-36 220.8835,-30 220.8835,-24 220.8835,-24 220.8835,-12 220.8835,-12 220.8835,-6 226.8835,0 232.8835,0 232.8835,0 305.1305,0 305.1305,0 311.1305,0 317.1305,-6 317.1305,-12 317.1305,-12 317.1305,-24 317.1305,-24 317.1305,-30 311.1305,-36 305.1305,-36"/>
<text text-anchor="start" x="228.9453" y="-13.8" font-family="Helvetica,sans-Serif" font-size="14.00" fill="#000000">logback-core</text>
</g>
<!-- ch.qos.logback:logback&#45;classic:jar&#45;&gt;ch.qos.logback:logback&#45;core:jar -->
<g id="edge3" class="edge">
<title>ch.qos.logback:logback-classic:jar-&gt;ch.qos.logback:logback-core:jar</title>
<path fill="none" stroke="#000000" d="M269.007,-71.8314C269.007,-64.131 269.007,-54.9743 269.007,-46.4166"/>
<polygon fill="#000000" stroke="#000000" points="272.5071,-46.4132 269.007,-36.4133 265.5071,-46.4133 272.5071,-46.4132"/>
</g>
<!-- org.springframework.boot:spring&#45;boot&#45;starter&#45;logging:jar&#45;&gt;ch.qos.logback:logback&#45;classic:jar -->
<g id="edge4" class="edge">
<title>org.springframework.boot:spring-boot-starter-logging:jar-&gt;ch.qos.logback:logback-classic:jar</title>
<path fill="none" stroke="#000000" d="M357.9783,-143.8314C342.7574,-134.6221 324.0942,-123.3301 307.7987,-113.4706"/>
<polygon fill="#000000" stroke="#000000" points="309.3938,-110.345 299.0261,-108.1628 305.7701,-116.3341 309.3938,-110.345"/>
</g>
<!-- org.apache.logging.log4j:log4j&#45;to&#45;slf4j:jar -->
<g id="node7" class="node">
<title>org.apache.logging.log4j:log4j-to-slf4j:jar</title>
<path fill="none" stroke="#000000" d="M421.9499,-108C421.9499,-108 354.0641,-108 354.0641,-108 348.0641,-108 342.0641,-102 342.0641,-96 342.0641,-96 342.0641,-84 342.0641,-84 342.0641,-78 348.0641,-72 354.0641,-72 354.0641,-72 421.9499,-72 421.9499,-72 427.9499,-72 433.9499,-78 433.9499,-84 433.9499,-84 433.9499,-96 433.9499,-96 433.9499,-102 427.9499,-108 421.9499,-108"/>
<text text-anchor="start" x="350.2861" y="-85.8" font-family="Helvetica,sans-Serif" font-size="14.00" fill="#000000">log4j-to-slf4j</text>
</g>
<!-- org.springframework.boot:spring&#45;boot&#45;starter&#45;logging:jar&#45;&gt;org.apache.logging.log4j:log4j&#45;to&#45;slf4j:jar -->
<g id="edge6" class="edge">
<title>org.springframework.boot:spring-boot-starter-logging:jar-&gt;org.apache.logging.log4j:log4j-to-slf4j:jar</title>
<path fill="none" stroke="#000000" d="M388.007,-143.8314C388.007,-136.131 388.007,-126.9743 388.007,-118.4166"/>
<polygon fill="#000000" stroke="#000000" points="391.5071,-118.4132 388.007,-108.4133 384.5071,-118.4133 391.5071,-118.4132"/>
</g>
<!-- org.slf4j:jul&#45;to&#45;slf4j:jar -->
<g id="node9" class="node">
<title>org.slf4j:jul-to-slf4j:jar</title>
<path fill="none" stroke="#000000" d="M515.8837,-108C515.8837,-108 464.1303,-108 464.1303,-108 458.1303,-108 452.1303,-102 452.1303,-96 452.1303,-96 452.1303,-84 452.1303,-84 452.1303,-78 458.1303,-72 464.1303,-72 464.1303,-72 515.8837,-72 515.8837,-72 521.8837,-72 527.8837,-78 527.8837,-84 527.8837,-84 527.8837,-96 527.8837,-96 527.8837,-102 521.8837,-108 515.8837,-108"/>
<text text-anchor="start" x="460.0687" y="-85.8" font-family="Helvetica,sans-Serif" font-size="14.00" fill="#000000">jul-to-slf4j</text>
</g>
<!-- org.springframework.boot:spring&#45;boot&#45;starter&#45;logging:jar&#45;&gt;org.slf4j:jul&#45;to&#45;slf4j:jar -->
<g id="edge7" class="edge">
<title>org.springframework.boot:spring-boot-starter-logging:jar-&gt;org.slf4j:jul-to-slf4j:jar</title>
<path fill="none" stroke="#000000" d="M413.7459,-143.8314C426.5507,-134.7927 442.1979,-123.7476 455.9789,-114.0198"/>
<polygon fill="#000000" stroke="#000000" points="458.125,-116.7891 464.2763,-108.1628 454.0882,-111.0703 458.125,-116.7891"/>
</g>
<!-- org.apache.logging.log4j:log4j&#45;api:jar -->
<g id="node8" class="node">
<title>org.apache.logging.log4j:log4j-api:jar</title>
<path fill="none" stroke="#000000" d="M410.4005,-36C410.4005,-36 365.6135,-36 365.6135,-36 359.6135,-36 353.6135,-30 353.6135,-24 353.6135,-24 353.6135,-12 353.6135,-12 353.6135,-6 359.6135,0 365.6135,0 365.6135,0 410.4005,0 410.4005,0 416.4005,0 422.4005,-6 422.4005,-12 422.4005,-12 422.4005,-24 422.4005,-24 422.4005,-30 416.4005,-36 410.4005,-36"/>
<text text-anchor="start" x="361.5603" y="-13.8" font-family="Helvetica,sans-Serif" font-size="14.00" fill="#000000">log4j-api</text>
</g>
<!-- org.apache.logging.log4j:log4j&#45;to&#45;slf4j:jar&#45;&gt;org.apache.logging.log4j:log4j&#45;api:jar -->
<g id="edge5" class="edge">
<title>org.apache.logging.log4j:log4j-to-slf4j:jar-&gt;org.apache.logging.log4j:log4j-api:jar</title>
<path fill="none" stroke="#000000" d="M388.007,-71.8314C388.007,-64.131 388.007,-54.9743 388.007,-46.4166"/>
<polygon fill="#000000" stroke="#000000" points="391.5071,-46.4132 388.007,-36.4133 384.5071,-46.4133 391.5071,-46.4132"/>
</g>
<!-- org.springframework.boot:spring&#45;boot&#45;starter&#45;batch:jar -->
<g id="node12" class="node">
<title>org.springframework.boot:spring-boot-starter-batch:jar</title>
<path fill="none" stroke="#000000" d="M1234.7484,-324C1234.7484,-324 1089.2656,-324 1089.2656,-324 1083.2656,-324 1077.2656,-318 1077.2656,-312 1077.2656,-312 1077.2656,-300 1077.2656,-300 1077.2656,-294 1083.2656,-288 1089.2656,-288 1089.2656,-288 1234.7484,-288 1234.7484,-288 1240.7484,-288 1246.7484,-294 1246.7484,-300 1246.7484,-300 1246.7484,-312 1246.7484,-312 1246.7484,-318 1240.7484,-324 1234.7484,-324"/>
<text text-anchor="start" x="1085.3864" y="-301.8" font-family="Helvetica,sans-Serif" font-size="14.00" fill="#000000">spring-boot-starter-batch</text>
</g>
<!-- org.springframework.boot:spring&#45;boot&#45;starter&#45;batch:jar&#45;&gt;org.springframework.boot:spring&#45;boot&#45;starter:jar -->
<g id="edge11" class="edge">
<title>org.springframework.boot:spring-boot-starter-batch:jar-&gt;org.springframework.boot:spring-boot-starter:jar</title>
<path fill="none" stroke="#000000" d="M1077.3536,-297.063C943.1124,-282.8909 683.5172,-255.4849 555.3493,-241.954"/>
<polygon fill="#000000" stroke="#000000" points="555.5429,-238.4551 545.2307,-240.8858 554.8079,-245.4164 555.5429,-238.4551"/>
</g>
<!-- org.springframework.boot:spring&#45;boot&#45;starter&#45;jdbc:jar -->
<g id="node13" class="node">
<title>org.springframework.boot:spring-boot-starter-jdbc:jar</title>
<path fill="none" stroke="#000000" d="M1033.1819,-252C1033.1819,-252 896.8321,-252 896.8321,-252 890.8321,-252 884.8321,-246 884.8321,-240 884.8321,-240 884.8321,-228 884.8321,-228 884.8321,-222 890.8321,-216 896.8321,-216 896.8321,-216 1033.1819,-216 1033.1819,-216 1039.1819,-216 1045.1819,-222 1045.1819,-228 1045.1819,-228 1045.1819,-240 1045.1819,-240 1045.1819,-246 1039.1819,-252 1033.1819,-252"/>
<text text-anchor="start" x="892.6697" y="-229.8" font-family="Helvetica,sans-Serif" font-size="14.00" fill="#000000">spring-boot-starter-jdbc</text>
</g>
<!-- org.springframework.boot:spring&#45;boot&#45;starter&#45;batch:jar&#45;&gt;org.springframework.boot:spring&#45;boot&#45;starter&#45;jdbc:jar -->
<g id="edge13" class="edge">
<title>org.springframework.boot:spring-boot-starter-batch:jar-&gt;org.springframework.boot:spring-boot-starter-jdbc:jar</title>
<path fill="none" stroke="#000000" d="M1112.5499,-287.9243C1085.7359,-278.1243 1052.4121,-265.945 1024.2223,-255.6422"/>
<polygon fill="#000000" stroke="#000000" points="1025.0783,-252.2286 1014.4845,-252.0831 1022.6754,-258.8033 1025.0783,-252.2286"/>
</g>
<!-- org.springframework.batch:spring&#45;batch&#45;core:jar -->
<g id="node18" class="node">
<title>org.springframework.batch:spring-batch-core:jar</title>
<path fill="none" stroke="#000000" d="M1408.4074,-252C1408.4074,-252 1307.6066,-252 1307.6066,-252 1301.6066,-252 1295.6066,-246 1295.6066,-240 1295.6066,-240 1295.6066,-228 1295.6066,-228 1295.6066,-222 1301.6066,-216 1307.6066,-216 1307.6066,-216 1408.4074,-216 1408.4074,-216 1414.4074,-216 1420.4074,-222 1420.4074,-228 1420.4074,-228 1420.4074,-240 1420.4074,-240 1420.4074,-246 1414.4074,-252 1408.4074,-252"/>
<text text-anchor="start" x="1303.5568" y="-229.8" font-family="Helvetica,sans-Serif" font-size="14.00" fill="#000000">spring-batch-core</text>
</g>
<!-- org.springframework.boot:spring&#45;boot&#45;starter&#45;batch:jar&#45;&gt;org.springframework.batch:spring&#45;batch&#45;core:jar -->
<g id="edge30" class="edge">
<title>org.springframework.boot:spring-boot-starter-batch:jar-&gt;org.springframework.batch:spring-batch-core:jar</title>
<path fill="none" stroke="#000000" d="M1211.2131,-287.9243C1237.8909,-278.1243 1271.0456,-265.945 1299.0922,-255.6422"/>
<polygon fill="#000000" stroke="#000000" points="1300.6008,-258.8167 1308.7807,-252.0831 1298.1871,-252.246 1300.6008,-258.8167"/>
</g>
<!-- com.zaxxer:HikariCP:jar -->
<g id="node14" class="node">
<title>com.zaxxer:HikariCP:jar</title>
<path fill="none" stroke="#000000" d="M824.7135,-180C824.7135,-180 777.3005,-180 777.3005,-180 771.3005,-180 765.3005,-174 765.3005,-168 765.3005,-168 765.3005,-156 765.3005,-156 765.3005,-150 771.3005,-144 777.3005,-144 777.3005,-144 824.7135,-144 824.7135,-144 830.7135,-144 836.7135,-150 836.7135,-156 836.7135,-156 836.7135,-168 836.7135,-168 836.7135,-174 830.7135,-180 824.7135,-180"/>
<text text-anchor="start" x="773.4039" y="-157.8" font-family="Helvetica,sans-Serif" font-size="14.00" fill="#000000">HikariCP</text>
</g>
<!-- org.springframework.boot:spring&#45;boot&#45;starter&#45;jdbc:jar&#45;&gt;com.zaxxer:HikariCP:jar -->
<g id="edge12" class="edge">
<title>org.springframework.boot:spring-boot-starter-jdbc:jar-&gt;com.zaxxer:HikariCP:jar</title>
<path fill="none" stroke="#000000" d="M923.6229,-215.8314C899.9997,-205.4602 870.3599,-192.4476 846.1395,-181.8143"/>
<polygon fill="#000000" stroke="#000000" points="847.3709,-178.5325 836.8075,-177.7173 844.557,-184.942 847.3709,-178.5325"/>
</g>
<!-- com.fasterxml.jackson.core:jackson&#45;databind:jar -->
<g id="node15" class="node">
<title>com.fasterxml.jackson.core:jackson-databind:jar</title>
<path fill="none" stroke="#000000" d="M964.815,-180C964.815,-180 867.199,-180 867.199,-180 861.199,-180 855.199,-174 855.199,-168 855.199,-168 855.199,-156 855.199,-156 855.199,-150 861.199,-144 867.199,-144 867.199,-144 964.815,-144 964.815,-144 970.815,-144 976.815,-150 976.815,-156 976.815,-156 976.815,-168 976.815,-168 976.815,-174 970.815,-180 964.815,-180"/>
<text text-anchor="start" x="863.1031" y="-157.8" font-family="Helvetica,sans-Serif" font-size="14.00" fill="#000000">jackson-databind</text>
</g>
<!-- com.fasterxml.jackson.core:jackson&#45;annotations:jar -->
<g id="node16" class="node">
<title>com.fasterxml.jackson.core:jackson-annotations:jar</title>
<path fill="none" stroke="#000000" d="M843.4888,-108C843.4888,-108 726.5252,-108 726.5252,-108 720.5252,-108 714.5252,-102 714.5252,-96 714.5252,-96 714.5252,-84 714.5252,-84 714.5252,-78 720.5252,-72 726.5252,-72 726.5252,-72 843.4888,-72 843.4888,-72 849.4888,-72 855.4888,-78 855.4888,-84 855.4888,-84 855.4888,-96 855.4888,-96 855.4888,-102 849.4888,-108 843.4888,-108"/>
<text text-anchor="start" x="722.7665" y="-85.8" font-family="Helvetica,sans-Serif" font-size="14.00" fill="#000000">jackson-annotations</text>
</g>
<!-- com.fasterxml.jackson.core:jackson&#45;databind:jar&#45;&gt;com.fasterxml.jackson.core:jackson&#45;annotations:jar -->
<g id="edge14" class="edge">
<title>com.fasterxml.jackson.core:jackson-databind:jar-&gt;com.fasterxml.jackson.core:jackson-annotations:jar</title>
<path fill="none" stroke="#000000" d="M882.9502,-143.8314C866.0393,-134.5368 845.2685,-123.1208 827.2129,-113.1971"/>
<polygon fill="#000000" stroke="#000000" points="828.5027,-109.9122 818.0533,-108.1628 825.131,-116.0468 828.5027,-109.9122"/>
</g>
<!-- com.fasterxml.jackson.core:jackson&#45;core:jar -->
<g id="node17" class="node">
<title>com.fasterxml.jackson.core:jackson-core:jar</title>
<path fill="none" stroke="#000000" d="M956.8484,-108C956.8484,-108 885.1656,-108 885.1656,-108 879.1656,-108 873.1656,-102 873.1656,-96 873.1656,-96 873.1656,-84 873.1656,-84 873.1656,-78 879.1656,-72 885.1656,-72 885.1656,-72 956.8484,-72 956.8484,-72 962.8484,-72 968.8484,-78 968.8484,-84 968.8484,-84 968.8484,-96 968.8484,-96 968.8484,-102 962.8484,-108 956.8484,-108"/>
<text text-anchor="start" x="881.3366" y="-85.8" font-family="Helvetica,sans-Serif" font-size="14.00" fill="#000000">jackson-core</text>
</g>
<!-- com.fasterxml.jackson.core:jackson&#45;databind:jar&#45;&gt;com.fasterxml.jackson.core:jackson&#45;core:jar -->
<g id="edge15" class="edge">
<title>com.fasterxml.jackson.core:jackson-databind:jar-&gt;com.fasterxml.jackson.core:jackson-core:jar</title>
<path fill="none" stroke="#000000" d="M917.2687,-143.8314C917.8035,-136.131 918.4393,-126.9743 919.0336,-118.4166"/>
<polygon fill="#000000" stroke="#000000" points="922.527,-118.6317 919.7283,-108.4133 915.5438,-118.1467 922.527,-118.6317"/>
</g>
<!-- org.springframework.batch:spring&#45;batch&#45;core:jar&#45;&gt;com.fasterxml.jackson.core:jackson&#45;databind:jar -->
<g id="edge16" class="edge">
<title>org.springframework.batch:spring-batch-core:jar-&gt;com.fasterxml.jackson.core:jackson-databind:jar</title>
<path fill="none" stroke="#000000" d="M1295.4557,-227.004C1223.3505,-218.4732 1101.1495,-202.5868 986.9637,-180.0807"/>
<polygon fill="#000000" stroke="#000000" points="987.4926,-176.6174 977.0014,-178.096 986.1248,-183.4825 987.4926,-176.6174"/>
</g>
<!-- io.micrometer:micrometer&#45;core:jar -->
<g id="node19" class="node">
<title>io.micrometer:micrometer-core:jar</title>
<path fill="none" stroke="#000000" d="M1100.8809,-180C1100.8809,-180 1007.1331,-180 1007.1331,-180 1001.1331,-180 995.1331,-174 995.1331,-168 995.1331,-168 995.1331,-156 995.1331,-156 995.1331,-150 1001.1331,-144 1007.1331,-144 1007.1331,-144 1100.8809,-144 1100.8809,-144 1106.8809,-144 1112.8809,-150 1112.8809,-156 1112.8809,-156 1112.8809,-168 1112.8809,-168 1112.8809,-174 1106.8809,-180 1100.8809,-180"/>
<text text-anchor="start" x="1003.0701" y="-157.8" font-family="Helvetica,sans-Serif" font-size="14.00" fill="#000000">micrometer-core</text>
</g>
<!-- org.springframework.batch:spring&#45;batch&#45;core:jar&#45;&gt;io.micrometer:micrometer&#45;core:jar -->
<g id="edge19" class="edge">
<title>org.springframework.batch:spring-batch-core:jar-&gt;io.micrometer:micrometer-core:jar</title>
<path fill="none" stroke="#000000" d="M1295.2625,-220.2495C1249.9551,-210.1808 1187.069,-195.9208 1122.8465,-180.1696"/>
<polygon fill="#000000" stroke="#000000" points="1123.4944,-176.7247 1112.9476,-177.7324 1121.8209,-183.5217 1123.4944,-176.7247"/>
</g>
<!-- javax.batch:javax.batch&#45;api:jar -->
<g id="node22" class="node">
<title>javax.batch:javax.batch-api:jar</title>
<path fill="none" stroke="#000000" d="M1229.1403,-180C1229.1403,-180 1142.8737,-180 1142.8737,-180 1136.8737,-180 1130.8737,-174 1130.8737,-168 1130.8737,-168 1130.8737,-156 1130.8737,-156 1130.8737,-150 1136.8737,-144 1142.8737,-144 1142.8737,-144 1229.1403,-144 1229.1403,-144 1235.1403,-144 1241.1403,-150 1241.1403,-156 1241.1403,-156 1241.1403,-168 1241.1403,-168 1241.1403,-174 1235.1403,-180 1229.1403,-180"/>
<text text-anchor="start" x="1138.9404" y="-157.8" font-family="Helvetica,sans-Serif" font-size="14.00" fill="#000000">javax.batch-api</text>
</g>
<!-- org.springframework.batch:spring&#45;batch&#45;core:jar&#45;&gt;javax.batch:javax.batch&#45;api:jar -->
<g id="edge20" class="edge">
<title>org.springframework.batch:spring-batch-core:jar-&gt;javax.batch:javax.batch-api:jar</title>
<path fill="none" stroke="#000000" d="M1314.6041,-215.8314C1291.4979,-206.159 1262.9032,-194.1891 1238.5493,-183.9944"/>
<polygon fill="#000000" stroke="#000000" points="1239.6737,-180.6709 1229.0978,-180.038 1236.9707,-187.128 1239.6737,-180.6709"/>
</g>
<!-- org.codehaus.jettison:jettison:jar -->
<g id="node23" class="node">
<title>org.codehaus.jettison:jettison:jar</title>
<path fill="none" stroke="#000000" d="M1307.3502,-180C1307.3502,-180 1270.6638,-180 1270.6638,-180 1264.6638,-180 1258.6638,-174 1258.6638,-168 1258.6638,-168 1258.6638,-156 1258.6638,-156 1258.6638,-150 1264.6638,-144 1270.6638,-144 1270.6638,-144 1307.3502,-144 1307.3502,-144 1313.3502,-144 1319.3502,-150 1319.3502,-156 1319.3502,-156 1319.3502,-168 1319.3502,-168 1319.3502,-174 1313.3502,-180 1307.3502,-180"/>
<text text-anchor="start" x="1266.8359" y="-157.8" font-family="Helvetica,sans-Serif" font-size="14.00" fill="#000000">jettison</text>
</g>
<!-- org.springframework.batch:spring&#45;batch&#45;core:jar&#45;&gt;org.codehaus.jettison:jettison:jar -->
<g id="edge21" class="edge">
<title>org.springframework.batch:spring-batch-core:jar-&gt;org.codehaus.jettison:jettison:jar</title>
<path fill="none" stroke="#000000" d="M1340.5954,-215.8314C1332.486,-207.3694 1322.6914,-197.1489 1313.825,-187.8971"/>
<polygon fill="#000000" stroke="#000000" points="1316.0991,-185.2115 1306.653,-180.4133 1311.0452,-190.0549 1316.0991,-185.2115"/>
</g>
<!-- org.springframework.batch:spring&#45;batch&#45;infrastructure:jar -->
<g id="node26" class="node">
<title>org.springframework.batch:spring-batch-infrastructure:jar</title>
<path fill="none" stroke="#000000" d="M1504.8551,-180C1504.8551,-180 1349.1589,-180 1349.1589,-180 1343.1589,-180 1337.1589,-174 1337.1589,-168 1337.1589,-168 1337.1589,-156 1337.1589,-156 1337.1589,-150 1343.1589,-144 1349.1589,-144 1349.1589,-144 1504.8551,-144 1504.8551,-144 1510.8551,-144 1516.8551,-150 1516.8551,-156 1516.8551,-156 1516.8551,-168 1516.8551,-168 1516.8551,-174 1510.8551,-180 1504.8551,-180"/>
<text text-anchor="start" x="1345.3331" y="-157.8" font-family="Helvetica,sans-Serif" font-size="14.00" fill="#000000">spring-batch-infrastructure</text>
</g>
<!-- org.springframework.batch:spring&#45;batch&#45;core:jar&#45;&gt;org.springframework.batch:spring&#45;batch&#45;infrastructure:jar -->
<g id="edge24" class="edge">
<title>org.springframework.batch:spring-batch-core:jar-&gt;org.springframework.batch:spring-batch-infrastructure:jar</title>
<path fill="none" stroke="#000000" d="M1375.4186,-215.8314C1383.528,-207.3694 1393.3226,-197.1489 1402.189,-187.8971"/>
<polygon fill="#000000" stroke="#000000" points="1404.9688,-190.0549 1409.361,-180.4133 1399.9149,-185.2115 1404.9688,-190.0549"/>
</g>
<!-- org.springframework:spring&#45;aop:jar -->
<g id="node27" class="node">
<title>org.springframework:spring-aop:jar</title>
<path fill="none" stroke="#000000" d="M1605.1305,-180C1605.1305,-180 1546.8835,-180 1546.8835,-180 1540.8835,-180 1534.8835,-174 1534.8835,-168 1534.8835,-168 1534.8835,-156 1534.8835,-156 1534.8835,-150 1540.8835,-144 1546.8835,-144 1546.8835,-144 1605.1305,-144 1605.1305,-144 1611.1305,-144 1617.1305,-150 1617.1305,-156 1617.1305,-156 1617.1305,-168 1617.1305,-168 1617.1305,-174 1611.1305,-180 1605.1305,-180"/>
<text text-anchor="start" x="1542.9453" y="-157.8" font-family="Helvetica,sans-Serif" font-size="14.00" fill="#000000">spring-aop</text>
</g>
<!-- org.springframework.batch:spring&#45;batch&#45;core:jar&#45;&gt;org.springframework:spring&#45;aop:jar -->
<g id="edge25" class="edge">
<title>org.springframework.batch:spring-batch-core:jar-&gt;org.springframework:spring-aop:jar</title>
<path fill="none" stroke="#000000" d="M1415.7072,-215.9955C1445.9134,-206.444 1483.7066,-194.2978 1525.3363,-180.1816"/>
<polygon fill="#000000" stroke="#000000" points="1526.5067,-183.4805 1534.8459,-176.9453 1524.2514,-176.8537 1526.5067,-183.4805"/>
</g>
<!-- org.springframework:spring&#45;beans:jar -->
<g id="node28" class="node">
<title>org.springframework:spring-beans:jar</title>
<path fill="none" stroke="#000000" d="M1720.413,-180C1720.413,-180 1647.601,-180 1647.601,-180 1641.601,-180 1635.601,-174 1635.601,-168 1635.601,-168 1635.601,-156 1635.601,-156 1635.601,-150 1641.601,-144 1647.601,-144 1647.601,-144 1720.413,-144 1720.413,-144 1726.413,-144 1732.413,-150 1732.413,-156 1732.413,-156 1732.413,-168 1732.413,-168 1732.413,-174 1726.413,-180 1720.413,-180"/>
<text text-anchor="start" x="1643.554" y="-157.8" font-family="Helvetica,sans-Serif" font-size="14.00" fill="#000000">spring-beans</text>
</g>
<!-- org.springframework.batch:spring&#45;batch&#45;core:jar&#45;&gt;org.springframework:spring&#45;beans:jar -->
<g id="edge26" class="edge">
<title>org.springframework.batch:spring-batch-core:jar-&gt;org.springframework:spring-beans:jar</title>
<path fill="none" stroke="#000000" d="M1420.4205,-223.2892C1472.7594,-213.8827 1549.6011,-199.0861 1625.627,-179.9647"/>
<polygon fill="#000000" stroke="#000000" points="1626.5454,-183.3427 1635.3754,-177.4876 1624.8214,-176.5583 1626.5454,-183.3427"/>
</g>
<!-- org.springframework:spring&#45;context:jar -->
<g id="node29" class="node">
<title>org.springframework:spring-context:jar</title>
<path fill="none" stroke="#000000" d="M1841.9116,-180C1841.9116,-180 1762.1024,-180 1762.1024,-180 1756.1024,-180 1750.1024,-174 1750.1024,-168 1750.1024,-168 1750.1024,-156 1750.1024,-156 1750.1024,-150 1756.1024,-144 1762.1024,-144 1762.1024,-144 1841.9116,-144 1841.9116,-144 1847.9116,-144 1853.9116,-150 1853.9116,-156 1853.9116,-156 1853.9116,-168 1853.9116,-168 1853.9116,-174 1847.9116,-180 1841.9116,-180"/>
<text text-anchor="start" x="1758.0547" y="-157.8" font-family="Helvetica,sans-Serif" font-size="14.00" fill="#000000">spring-context</text>
</g>
<!-- org.springframework.batch:spring&#45;batch&#45;core:jar&#45;&gt;org.springframework:spring&#45;context:jar -->
<g id="edge28" class="edge">
<title>org.springframework.batch:spring-batch-core:jar-&gt;org.springframework:spring-context:jar</title>
<path fill="none" stroke="#000000" d="M1420.5281,-228.0363C1494.6811,-220.3276 1622.074,-205.0865 1739.9742,-180.0591"/>
<polygon fill="#000000" stroke="#000000" points="1740.8535,-183.4501 1749.8937,-177.9252 1739.3812,-176.6067 1740.8535,-183.4501"/>
</g>
<!-- org.springframework:spring&#45;tx:jar -->
<g id="node31" class="node">
<title>org.springframework:spring-tx:jar</title>
<path fill="none" stroke="#000000" d="M1929.674,-180C1929.674,-180 1884.34,-180 1884.34,-180 1878.34,-180 1872.34,-174 1872.34,-168 1872.34,-168 1872.34,-156 1872.34,-156 1872.34,-150 1878.34,-144 1884.34,-144 1884.34,-144 1929.674,-144 1929.674,-144 1935.674,-144 1941.674,-150 1941.674,-156 1941.674,-156 1941.674,-168 1941.674,-168 1941.674,-174 1935.674,-180 1929.674,-180"/>
<text text-anchor="start" x="1880.1739" y="-157.8" font-family="Helvetica,sans-Serif" font-size="14.00" fill="#000000">spring-tx</text>
</g>
<!-- org.springframework.batch:spring&#45;batch&#45;core:jar&#45;&gt;org.springframework:spring&#45;tx:jar -->
<g id="edge29" class="edge">
<title>org.springframework.batch:spring-batch-core:jar-&gt;org.springframework:spring-tx:jar</title>
<path fill="none" stroke="#000000" d="M1420.6187,-229.5173C1532.6776,-221.1408 1764.1889,-202.1424 1862.3351,-179.657"/>
<polygon fill="#000000" stroke="#000000" points="1863.3479,-183.0129 1872.2428,-177.257 1861.6998,-176.2097 1863.3479,-183.0129"/>
</g>
<!-- org.hdrhistogram:HdrHistogram:jar -->
<g id="node20" class="node">
<title>org.hdrhistogram:HdrHistogram:jar</title>
<path fill="none" stroke="#000000" d="M1083.3301,-108C1083.3301,-108 1004.6839,-108 1004.6839,-108 998.6839,-108 992.6839,-102 992.6839,-96 992.6839,-96 992.6839,-84 992.6839,-84 992.6839,-78 998.6839,-72 1004.6839,-72 1004.6839,-72 1083.3301,-72 1083.3301,-72 1089.3301,-72 1095.3301,-78 1095.3301,-84 1095.3301,-84 1095.3301,-96 1095.3301,-96 1095.3301,-102 1089.3301,-108 1083.3301,-108"/>
<text text-anchor="start" x="1000.8457" y="-85.8" font-family="Helvetica,sans-Serif" font-size="14.00" fill="#000000">HdrHistogram</text>
</g>
<!-- io.micrometer:micrometer&#45;core:jar&#45;&gt;org.hdrhistogram:HdrHistogram:jar -->
<g id="edge17" class="edge">
<title>io.micrometer:micrometer-core:jar-&gt;org.hdrhistogram:HdrHistogram:jar</title>
<path fill="none" stroke="#000000" d="M1051.4836,-143.8314C1050.4141,-136.131 1049.1423,-126.9743 1047.9538,-118.4166"/>
<polygon fill="#000000" stroke="#000000" points="1051.4069,-117.8367 1046.5644,-108.4133 1044.4734,-118.7997 1051.4069,-117.8367"/>
</g>
<!-- org.latencyutils:LatencyUtils:jar -->
<g id="node21" class="node">
<title>org.latencyutils:LatencyUtils:jar</title>
<path fill="none" stroke="#000000" d="M1193.2387,-108C1193.2387,-108 1124.7753,-108 1124.7753,-108 1118.7753,-108 1112.7753,-102 1112.7753,-96 1112.7753,-96 1112.7753,-84 1112.7753,-84 1112.7753,-78 1118.7753,-72 1124.7753,-72 1124.7753,-72 1193.2387,-72 1193.2387,-72 1199.2387,-72 1205.2387,-78 1205.2387,-84 1205.2387,-84 1205.2387,-96 1205.2387,-96 1205.2387,-102 1199.2387,-108 1193.2387,-108"/>
<text text-anchor="start" x="1120.8913" y="-90.4" font-family="Helvetica,sans-Serif" font-size="14.00" fill="#000000">LatencyUtils</text>
<text text-anchor="start" x="1139.0115" y="-80" font-family="Helvetica,sans-Serif" font-size="10.00" fill="#000000">(runtime)</text>
</g>
<!-- io.micrometer:micrometer&#45;core:jar&#45;&gt;org.latencyutils:LatencyUtils:jar -->
<g id="edge18" class="edge">
<title>io.micrometer:micrometer-core:jar-&gt;org.latencyutils:LatencyUtils:jar</title>
<path fill="none" stroke="#000000" d="M1080.5029,-143.8314C1093.6844,-134.7927 1109.7917,-123.7476 1123.9781,-114.0198"/>
<polygon fill="#000000" stroke="#000000" points="1126.2516,-116.7047 1132.5195,-108.1628 1122.2929,-110.9316 1126.2516,-116.7047"/>
</g>
<!-- org.springframework.retry:spring&#45;retry:jar -->
<g id="node24" class="node">
<title>org.springframework.retry:spring-retry:jar</title>
<path fill="none" stroke="#000000" d="M1458.2773,-108C1458.2773,-108 1395.7367,-108 1395.7367,-108 1389.7367,-108 1383.7367,-102 1383.7367,-96 1383.7367,-96 1383.7367,-84 1383.7367,-84 1383.7367,-78 1389.7367,-72 1395.7367,-72 1395.7367,-72 1458.2773,-72 1458.2773,-72 1464.2773,-72 1470.2773,-78 1470.2773,-84 1470.2773,-84 1470.2773,-96 1470.2773,-96 1470.2773,-102 1464.2773,-108 1458.2773,-108"/>
<text text-anchor="start" x="1391.622" y="-85.8" font-family="Helvetica,sans-Serif" font-size="14.00" fill="#000000">spring-retry</text>
</g>
<!-- javax.annotation:javax.annotation&#45;api:jar -->
<g id="node25" class="node">
<title>javax.annotation:javax.annotation-api:jar</title>
<path fill="none" stroke="#000000" d="M1485.768,-36C1485.768,-36 1368.246,-36 1368.246,-36 1362.246,-36 1356.246,-30 1356.246,-24 1356.246,-24 1356.246,-12 1356.246,-12 1356.246,-6 1362.246,0 1368.246,0 1368.246,0 1485.768,0 1485.768,0 1491.768,0 1497.768,-6 1497.768,-12 1497.768,-12 1497.768,-24 1497.768,-24 1497.768,-30 1491.768,-36 1485.768,-36"/>
<text text-anchor="start" x="1364.3766" y="-13.8" font-family="Helvetica,sans-Serif" font-size="14.00" fill="#000000">javax.annotation-api</text>
</g>
<!-- org.springframework.retry:spring&#45;retry:jar&#45;&gt;javax.annotation:javax.annotation&#45;api:jar -->
<g id="edge22" class="edge">
<title>org.springframework.retry:spring-retry:jar-&gt;javax.annotation:javax.annotation-api:jar</title>
<path fill="none" stroke="#000000" d="M1427.007,-71.8314C1427.007,-64.131 1427.007,-54.9743 1427.007,-46.4166"/>
<polygon fill="#000000" stroke="#000000" points="1430.5071,-46.4132 1427.007,-36.4133 1423.5071,-46.4133 1430.5071,-46.4132"/>
</g>
<!-- org.springframework.batch:spring&#45;batch&#45;infrastructure:jar&#45;&gt;org.springframework.retry:spring&#45;retry:jar -->
<g id="edge23" class="edge">
<title>org.springframework.batch:spring-batch-infrastructure:jar-&gt;org.springframework.retry:spring-retry:jar</title>
<path fill="none" stroke="#000000" d="M1427.007,-143.8314C1427.007,-136.131 1427.007,-126.9743 1427.007,-118.4166"/>
<polygon fill="#000000" stroke="#000000" points="1430.5071,-118.4132 1427.007,-108.4133 1423.5071,-118.4133 1430.5071,-118.4132"/>
</g>
<!-- org.springframework:spring&#45;expression:jar -->
<g id="node30" class="node">
<title>org.springframework:spring-expression:jar</title>
<path fill="none" stroke="#000000" d="M1853.4636,-108C1853.4636,-108 1750.5504,-108 1750.5504,-108 1744.5504,-108 1738.5504,-102 1738.5504,-96 1738.5504,-96 1738.5504,-84 1738.5504,-84 1738.5504,-78 1744.5504,-72 1750.5504,-72 1750.5504,-72 1853.4636,-72 1853.4636,-72 1859.4636,-72 1865.4636,-78 1865.4636,-84 1865.4636,-84 1865.4636,-96 1865.4636,-96 1865.4636,-102 1859.4636,-108 1853.4636,-108"/>
<text text-anchor="start" x="1746.7791" y="-85.8" font-family="Helvetica,sans-Serif" font-size="14.00" fill="#000000">spring-expression</text>
</g>
<!-- org.springframework:spring&#45;context:jar&#45;&gt;org.springframework:spring&#45;expression:jar -->
<g id="edge27" class="edge">
<title>org.springframework:spring-context:jar-&gt;org.springframework:spring-expression:jar</title>
<path fill="none" stroke="#000000" d="M1802.007,-143.8314C1802.007,-136.131 1802.007,-126.9743 1802.007,-118.4166"/>
<polygon fill="#000000" stroke="#000000" points="1805.5071,-118.4132 1802.007,-108.4133 1798.5071,-118.4133 1805.5071,-118.4132"/>
</g>
<!-- com.jk:batch&#45;processing&#45;demo:jar -->
<g id="node32" class="node">
<title>com.jk:batch-processing-demo:jar</title>
<path fill="none" stroke="#000000" d="M2608.2554,-396C2608.2554,-396 2469.7586,-396 2469.7586,-396 2463.7586,-396 2457.7586,-390 2457.7586,-384 2457.7586,-384 2457.7586,-372 2457.7586,-372 2457.7586,-366 2463.7586,-360 2469.7586,-360 2469.7586,-360 2608.2554,-360 2608.2554,-360 2614.2554,-360 2620.2554,-366 2620.2554,-372 2620.2554,-372 2620.2554,-384 2620.2554,-384 2620.2554,-390 2614.2554,-396 2608.2554,-396"/>
<text text-anchor="middle" x="2539.007" y="-373.8" font-family="Helvetica,sans-Serif" font-size="14.00" fill="#000000">batch-processing-demo</text>
</g>
<!-- com.jk:batch&#45;processing&#45;demo:jar&#45;&gt;org.springframework.boot:spring&#45;boot&#45;starter&#45;batch:jar -->
<g id="edge31" class="edge">
<title>com.jk:batch-processing-demo:jar-&gt;org.springframework.boot:spring-boot-starter-batch:jar</title>
<path fill="none" stroke="#000000" d="M2457.7565,-373.7516C2217.8481,-361.2074 1513.3572,-324.3713 1256.8255,-310.9578"/>
<polygon fill="#000000" stroke="#000000" points="1256.9551,-307.4599 1246.7859,-310.4329 1256.5895,-314.4504 1256.9551,-307.4599"/>
</g>
<!-- org.hsqldb:hsqldb:jar -->
<g id="node33" class="node">
<title>org.hsqldb:hsqldb:jar</title>
<path fill="none" stroke="#000000" d="M2493.7445,-324C2493.7445,-324 2460.2695,-324 2460.2695,-324 2454.2695,-324 2448.2695,-318 2448.2695,-312 2448.2695,-312 2448.2695,-300 2448.2695,-300 2448.2695,-294 2454.2695,-288 2460.2695,-288 2460.2695,-288 2493.7445,-288 2493.7445,-288 2499.7445,-288 2505.7445,-294 2505.7445,-300 2505.7445,-300 2505.7445,-312 2505.7445,-312 2505.7445,-318 2499.7445,-324 2493.7445,-324"/>
<text text-anchor="start" x="2456.3885" y="-306.4" font-family="Helvetica,sans-Serif" font-size="14.00" fill="#000000">hsqldb</text>
<text text-anchor="start" x="2457.0115" y="-296" font-family="Helvetica,sans-Serif" font-size="10.00" fill="#000000">(runtime)</text>
</g>
<!-- com.jk:batch&#45;processing&#45;demo:jar&#45;&gt;org.hsqldb:hsqldb:jar -->
<g id="edge32" class="edge">
<title>com.jk:batch-processing-demo:jar-&gt;org.hsqldb:hsqldb:jar</title>
<path fill="none" stroke="#000000" d="M2523.3618,-359.8314C2516.1479,-351.454 2507.45,-341.3531 2499.5465,-332.1749"/>
<polygon fill="#000000" stroke="#000000" points="2502.0403,-329.7071 2492.8629,-324.4133 2496.7359,-334.2748 2502.0403,-329.7071"/>
</g>
<!-- org.springframework.boot:spring&#45;boot&#45;starter&#45;test:jar -->
<g id="node34" class="node">
<title>org.springframework.boot:spring-boot-starter-test:jar</title>
<path fill="none" stroke="#000000" d="M2668.5742,-324C2668.5742,-324 2535.4398,-324 2535.4398,-324 2529.4398,-324 2523.4398,-318 2523.4398,-312 2523.4398,-312 2523.4398,-300 2523.4398,-300 2523.4398,-294 2529.4398,-288 2535.4398,-288 2535.4398,-288 2668.5742,-288 2668.5742,-288 2674.5742,-288 2680.5742,-294 2680.5742,-300 2680.5742,-300 2680.5742,-312 2680.5742,-312 2680.5742,-318 2674.5742,-324 2668.5742,-324"/>
<text text-anchor="start" x="2531.2237" y="-306.4" font-family="Helvetica,sans-Serif" font-size="14.00" fill="#000000">spring-boot-starter-test</text>
<text text-anchor="start" x="2590.6195" y="-296" font-family="Helvetica,sans-Serif" font-size="10.00" fill="#000000">(test)</text>
</g>
<!-- com.jk:batch&#45;processing&#45;demo:jar&#45;&gt;org.springframework.boot:spring&#45;boot&#45;starter&#45;test:jar -->
<g id="edge63" class="edge">
<title>com.jk:batch-processing-demo:jar-&gt;org.springframework.boot:spring-boot-starter-test:jar</title>
<path fill="none" stroke="#000000" d="M2554.9046,-359.8314C2562.2348,-351.454 2571.073,-341.3531 2579.1039,-332.1749"/>
<polygon fill="#000000" stroke="#000000" points="2581.9443,-334.2438 2585.8954,-324.4133 2576.6763,-329.6343 2581.9443,-334.2438"/>
</g>
<!-- org.springframework.batch:spring&#45;batch&#45;test:jar -->
<g id="node67" class="node">
<title>org.springframework.batch:spring-batch-test:jar</title>
<path fill="none" stroke="#000000" d="M3419.2456,-324C3419.2456,-324 3322.7684,-324 3322.7684,-324 3316.7684,-324 3310.7684,-318 3310.7684,-312 3310.7684,-312 3310.7684,-300 3310.7684,-300 3310.7684,-294 3316.7684,-288 3322.7684,-288 3322.7684,-288 3419.2456,-288 3419.2456,-288 3425.2456,-288 3431.2456,-294 3431.2456,-300 3431.2456,-300 3431.2456,-312 3431.2456,-312 3431.2456,-318 3425.2456,-324 3419.2456,-324"/>
<text text-anchor="start" x="3318.8878" y="-306.4" font-family="Helvetica,sans-Serif" font-size="14.00" fill="#000000">spring-batch-test</text>
<text text-anchor="start" x="3359.6195" y="-296" font-family="Helvetica,sans-Serif" font-size="10.00" fill="#000000">(test)</text>
</g>
<!-- com.jk:batch&#45;processing&#45;demo:jar&#45;&gt;org.springframework.batch:spring&#45;batch&#45;test:jar -->
<g id="edge67" class="edge">
<title>com.jk:batch-processing-demo:jar-&gt;org.springframework.batch:spring-batch-test:jar</title>
<path fill="none" stroke="#000000" d="M2620.2975,-370.9652C2783.1786,-356.8698 3147.0275,-325.3828 3300.5347,-312.0986"/>
<polygon fill="#000000" stroke="#000000" points="3301.117,-315.5613 3310.778,-311.2121 3300.5135,-308.5874 3301.117,-315.5613"/>
</g>
<!-- org.springframework.boot:spring&#45;boot&#45;test:jar -->
<g id="node35" class="node">
<title>org.springframework.boot:spring-boot-test:jar</title>
<path fill="none" stroke="#000000" d="M1864.7457,-252C1864.7457,-252 1775.2683,-252 1775.2683,-252 1769.2683,-252 1763.2683,-246 1763.2683,-240 1763.2683,-240 1763.2683,-228 1763.2683,-228 1763.2683,-222 1769.2683,-216 1775.2683,-216 1775.2683,-216 1864.7457,-216 1864.7457,-216 1870.7457,-216 1876.7457,-222 1876.7457,-228 1876.7457,-228 1876.7457,-240 1876.7457,-240 1876.7457,-246 1870.7457,-252 1864.7457,-252"/>
<text text-anchor="start" x="1771.3878" y="-234.4" font-family="Helvetica,sans-Serif" font-size="14.00" fill="#000000">spring-boot-test</text>
<text text-anchor="start" x="1808.6195" y="-224" font-family="Helvetica,sans-Serif" font-size="10.00" fill="#000000">(test)</text>
</g>
<!-- org.springframework.boot:spring&#45;boot&#45;starter&#45;test:jar&#45;&gt;org.springframework.boot:spring&#45;boot&#45;test:jar -->
<g id="edge33" class="edge">
<title>org.springframework.boot:spring-boot-starter-test:jar-&gt;org.springframework.boot:spring-boot-test:jar</title>
<path fill="none" stroke="#000000" d="M2523.3745,-289.1919C2520.5554,-288.7612 2517.7597,-288.3615 2515.007,-288 2240.6318,-251.963 2164.1527,-296.028 1886.6788,-251.8845"/>
<polygon fill="#000000" stroke="#000000" points="1887.1529,-248.4158 1876.7227,-250.2767 1886.0368,-255.3263 1887.1529,-248.4158"/>
</g>
<!-- org.springframework.boot:spring&#45;boot&#45;test&#45;autoconfigure:jar -->
<g id="node36" class="node">
<title>org.springframework.boot:spring-boot-test-autoconfigure:jar</title>
<path fill="none" stroke="#000000" d="M2085.2154,-252C2085.2154,-252 1906.7986,-252 1906.7986,-252 1900.7986,-252 1894.7986,-246 1894.7986,-240 1894.7986,-240 1894.7986,-228 1894.7986,-228 1894.7986,-222 1900.7986,-216 1906.7986,-216 1906.7986,-216 2085.2154,-216 2085.2154,-216 2091.2154,-216 2097.2154,-222 2097.2154,-228 2097.2154,-228 2097.2154,-240 2097.2154,-240 2097.2154,-246 2091.2154,-252 2085.2154,-252"/>
<text text-anchor="start" x="1902.6529" y="-234.4" font-family="Helvetica,sans-Serif" font-size="14.00" fill="#000000">spring-boot-test-autoconfigure</text>
<text text-anchor="start" x="1984.6195" y="-224" font-family="Helvetica,sans-Serif" font-size="10.00" fill="#000000">(test)</text>
</g>
<!-- org.springframework.boot:spring&#45;boot&#45;starter&#45;test:jar&#45;&gt;org.springframework.boot:spring&#45;boot&#45;test&#45;autoconfigure:jar -->
<g id="edge34" class="edge">
<title>org.springframework.boot:spring-boot-starter-test:jar-&gt;org.springframework.boot:spring-boot-test-autoconfigure:jar</title>
<path fill="none" stroke="#000000" d="M2523.3593,-289.3011C2520.5445,-288.8395 2517.7538,-288.4036 2515.007,-288 2337.7271,-261.9487 2288.8201,-274.2831 2107.4104,-252.1186"/>
<polygon fill="#000000" stroke="#000000" points="2107.6158,-248.6173 2097.261,-250.8597 2106.7541,-255.5641 2107.6158,-248.6173"/>
</g>
<!-- com.jayway.jsonpath:json&#45;path:jar -->
<g id="node40" class="node">
<title>com.jayway.jsonpath:json-path:jar</title>
<path fill="none" stroke="#000000" d="M2176.579,-252C2176.579,-252 2127.435,-252 2127.435,-252 2121.435,-252 2115.435,-246 2115.435,-240 2115.435,-240 2115.435,-228 2115.435,-228 2115.435,-222 2121.435,-216 2127.435,-216 2127.435,-216 2176.579,-216 2176.579,-216 2182.579,-216 2188.579,-222 2188.579,-228 2188.579,-228 2188.579,-240 2188.579,-240 2188.579,-246 2182.579,-252 2176.579,-252"/>
<text text-anchor="start" x="2123.2216" y="-234.4" font-family="Helvetica,sans-Serif" font-size="14.00" fill="#000000">json-path</text>
<text text-anchor="start" x="2140.6195" y="-224" font-family="Helvetica,sans-Serif" font-size="10.00" fill="#000000">(test)</text>
</g>
<!-- org.springframework.boot:spring&#45;boot&#45;starter&#45;test:jar&#45;&gt;com.jayway.jsonpath:json&#45;path:jar -->
<g id="edge39" class="edge">
<title>org.springframework.boot:spring-boot-starter-test:jar-&gt;com.jayway.jsonpath:json-path:jar</title>
<path fill="none" stroke="#000000" d="M2523.3457,-289.3898C2520.5347,-288.9031 2517.7486,-288.4379 2515.007,-288 2377.8429,-266.0935 2336.8518,-285.7556 2199.1596,-252.2243"/>
<polygon fill="#000000" stroke="#000000" points="2199.6251,-248.7335 2189.076,-249.7168 2197.9358,-255.5266 2199.6251,-248.7335"/>
</g>
<!-- jakarta.xml.bind:jakarta.xml.bind&#45;api:jar -->
<g id="node42" class="node">
<title>jakarta.xml.bind:jakarta.xml.bind-api:jar</title>
<path fill="none" stroke="#000000" d="M2331.8482,-252C2331.8482,-252 2218.1658,-252 2218.1658,-252 2212.1658,-252 2206.1658,-246 2206.1658,-240 2206.1658,-240 2206.1658,-228 2206.1658,-228 2206.1658,-222 2212.1658,-216 2218.1658,-216 2218.1658,-216 2331.8482,-216 2331.8482,-216 2337.8482,-216 2343.8482,-222 2343.8482,-228 2343.8482,-228 2343.8482,-240 2343.8482,-240 2343.8482,-246 2337.8482,-252 2331.8482,-252"/>
<text text-anchor="start" x="2214.3366" y="-234.4" font-family="Helvetica,sans-Serif" font-size="14.00" fill="#000000">jakarta.xml.bind-api</text>
<text text-anchor="start" x="2263.6195" y="-224" font-family="Helvetica,sans-Serif" font-size="10.00" fill="#000000">(test)</text>
</g>
<!-- org.springframework.boot:spring&#45;boot&#45;starter&#45;test:jar&#45;&gt;jakarta.xml.bind:jakarta.xml.bind&#45;api:jar -->
<g id="edge41" class="edge">
<title>org.springframework.boot:spring-boot-starter-test:jar-&gt;jakarta.xml.bind:jakarta.xml.bind-api:jar</title>
<path fill="none" stroke="#000000" d="M2523.3942,-289.3757C2476.6196,-279.4006 2415.8432,-266.2946 2353.8062,-252.3899"/>
<polygon fill="#000000" stroke="#000000" points="2354.3647,-248.9282 2343.8408,-250.1518 2352.8307,-255.7581 2354.3647,-248.9282"/>
</g>
<!-- org.assertj:assertj&#45;core:jar -->
<g id="node44" class="node">
<title>org.assertj:assertj-core:jar</title>
<path fill="none" stroke="#000000" d="M2438.6165,-252C2438.6165,-252 2373.3975,-252 2373.3975,-252 2367.3975,-252 2361.3975,-246 2361.3975,-240 2361.3975,-240 2361.3975,-228 2361.3975,-228 2361.3975,-222 2367.3975,-216 2373.3975,-216 2373.3975,-216 2438.6165,-216 2438.6165,-216 2444.6165,-216 2450.6165,-222 2450.6165,-228 2450.6165,-228 2450.6165,-240 2450.6165,-240 2450.6165,-246 2444.6165,-252 2438.6165,-252"/>
<text text-anchor="start" x="2369.4523" y="-234.4" font-family="Helvetica,sans-Serif" font-size="14.00" fill="#000000">assertj-core</text>
<text text-anchor="start" x="2394.6195" y="-224" font-family="Helvetica,sans-Serif" font-size="10.00" fill="#000000">(test)</text>
</g>
<!-- org.springframework.boot:spring&#45;boot&#45;starter&#45;test:jar&#45;&gt;org.assertj:assertj&#45;core:jar -->
<g id="edge42" class="edge">
<title>org.springframework.boot:spring-boot-starter-test:jar-&gt;org.assertj:assertj-core:jar</title>
<path fill="none" stroke="#000000" d="M2552.8009,-287.9243C2524.6821,-277.5949 2489.368,-264.6224 2460.4237,-253.9898"/>
<polygon fill="#000000" stroke="#000000" points="2461.4652,-250.6438 2450.8716,-250.4809 2459.0514,-257.2145 2461.4652,-250.6438"/>
</g>
<!-- org.hamcrest:hamcrest:jar -->
<g id="node45" class="node">
<title>org.hamcrest:hamcrest:jar</title>
<path fill="none" stroke="#000000" d="M2529.5679,-252C2529.5679,-252 2480.4461,-252 2480.4461,-252 2474.4461,-252 2468.4461,-246 2468.4461,-240 2468.4461,-240 2468.4461,-228 2468.4461,-228 2468.4461,-222 2474.4461,-216 2480.4461,-216 2480.4461,-216 2529.5679,-216 2529.5679,-216 2535.5679,-216 2541.5679,-222 2541.5679,-228 2541.5679,-228 2541.5679,-240 2541.5679,-240 2541.5679,-246 2535.5679,-252 2529.5679,-252"/>
<text text-anchor="start" x="2476.2272" y="-234.4" font-family="Helvetica,sans-Serif" font-size="14.00" fill="#000000">hamcrest</text>
<text text-anchor="start" x="2493.6195" y="-224" font-family="Helvetica,sans-Serif" font-size="10.00" fill="#000000">(test)</text>
</g>
<!-- org.springframework.boot:spring&#45;boot&#45;starter&#45;test:jar&#45;&gt;org.hamcrest:hamcrest:jar -->
<g id="edge43" class="edge">
<title>org.springframework.boot:spring-boot-starter-test:jar-&gt;org.hamcrest:hamcrest:jar</title>
<path fill="none" stroke="#000000" d="M2577.5298,-287.8314C2565.4675,-278.8779 2550.753,-267.9558 2537.7384,-258.2955"/>
<polygon fill="#000000" stroke="#000000" points="2539.5922,-255.3127 2529.4764,-252.1628 2535.42,-260.9335 2539.5922,-255.3127"/>
</g>
<!-- org.junit.jupiter:junit&#45;jupiter:jar -->
<g id="node50" class="node">
<title>org.junit.jupiter:junit-jupiter:jar</title>
<path fill="none" stroke="#000000" d="M2632.45,-252C2632.45,-252 2571.564,-252 2571.564,-252 2565.564,-252 2559.564,-246 2559.564,-240 2559.564,-240 2559.564,-228 2559.564,-228 2559.564,-222 2565.564,-216 2571.564,-216 2571.564,-216 2632.45,-216 2632.45,-216 2638.45,-216 2644.45,-222 2644.45,-228 2644.45,-228 2644.45,-240 2644.45,-240 2644.45,-246 2638.45,-252 2632.45,-252"/>
<text text-anchor="start" x="2567.7861" y="-234.4" font-family="Helvetica,sans-Serif" font-size="14.00" fill="#000000">junit-jupiter</text>
<text text-anchor="start" x="2590.6195" y="-224" font-family="Helvetica,sans-Serif" font-size="10.00" fill="#000000">(test)</text>
</g>
<!-- org.springframework.boot:spring&#45;boot&#45;starter&#45;test:jar&#45;&gt;org.junit.jupiter:junit&#45;jupiter:jar -->
<g id="edge51" class="edge">
<title>org.springframework.boot:spring-boot-starter-test:jar-&gt;org.junit.jupiter:junit-jupiter:jar</title>
<path fill="none" stroke="#000000" d="M2602.007,-287.8314C2602.007,-280.131 2602.007,-270.9743 2602.007,-262.4166"/>
<polygon fill="#000000" stroke="#000000" points="2605.5071,-262.4132 2602.007,-252.4133 2598.5071,-262.4133 2605.5071,-262.4132"/>
</g>
<!-- org.mockito:mockito&#45;core:jar -->
<g id="node54" class="node">
<title>org.mockito:mockito-core:jar</title>
<path fill="none" stroke="#000000" d="M2746.1165,-252C2746.1165,-252 2673.8975,-252 2673.8975,-252 2667.8975,-252 2661.8975,-246 2661.8975,-240 2661.8975,-240 2661.8975,-228 2661.8975,-228 2661.8975,-222 2667.8975,-216 2673.8975,-216 2673.8975,-216 2746.1165,-216 2746.1165,-216 2752.1165,-216 2758.1165,-222 2758.1165,-228 2758.1165,-228 2758.1165,-240 2758.1165,-240 2758.1165,-246 2752.1165,-252 2746.1165,-252"/>
<text text-anchor="start" x="2669.9523" y="-234.4" font-family="Helvetica,sans-Serif" font-size="14.00" fill="#000000">mockito-core</text>
<text text-anchor="start" x="2698.6195" y="-224" font-family="Helvetica,sans-Serif" font-size="10.00" fill="#000000">(test)</text>
</g>
<!-- org.springframework.boot:spring&#45;boot&#45;starter&#45;test:jar&#45;&gt;org.mockito:mockito&#45;core:jar -->
<g id="edge55" class="edge">
<title>org.springframework.boot:spring-boot-starter-test:jar-&gt;org.mockito:mockito-core:jar</title>
<path fill="none" stroke="#000000" d="M2629.26,-287.8314C2642.9459,-278.7074 2659.6985,-267.539 2674.3897,-257.7449"/>
<polygon fill="#000000" stroke="#000000" points="2676.3837,-260.6221 2682.7628,-252.1628 2672.5008,-254.7977 2676.3837,-260.6221"/>
</g>
<!-- org.mockito:mockito&#45;junit&#45;jupiter:jar -->
<g id="node58" class="node">
<title>org.mockito:mockito-junit-jupiter:jar</title>
<path fill="none" stroke="#000000" d="M2901.8328,-252C2901.8328,-252 2788.1812,-252 2788.1812,-252 2782.1812,-252 2776.1812,-246 2776.1812,-240 2776.1812,-240 2776.1812,-228 2776.1812,-228 2776.1812,-222 2782.1812,-216 2788.1812,-216 2788.1812,-216 2901.8328,-216 2901.8328,-216 2907.8328,-216 2913.8328,-222 2913.8328,-228 2913.8328,-228 2913.8328,-240 2913.8328,-240 2913.8328,-246 2907.8328,-252 2901.8328,-252"/>
<text text-anchor="start" x="2784.3443" y="-234.4" font-family="Helvetica,sans-Serif" font-size="14.00" fill="#000000">mockito-junit-jupiter</text>
<text text-anchor="start" x="2833.6195" y="-224" font-family="Helvetica,sans-Serif" font-size="10.00" fill="#000000">(test)</text>
</g>
<!-- org.springframework.boot:spring&#45;boot&#45;starter&#45;test:jar&#45;&gt;org.mockito:mockito&#45;junit&#45;jupiter:jar -->
<g id="edge56" class="edge">
<title>org.springframework.boot:spring-boot-starter-test:jar-&gt;org.mockito:mockito-junit-jupiter:jar</title>
<path fill="none" stroke="#000000" d="M2663.0125,-287.9243C2696.8098,-277.9103 2738.9914,-265.412 2774.2332,-254.97"/>
<polygon fill="#000000" stroke="#000000" points="2775.3827,-258.2799 2783.9764,-252.0831 2773.3941,-251.5683 2775.3827,-258.2799"/>
</g>
<!-- org.skyscreamer:jsonassert:jar -->
<g id="node59" class="node">
<title>org.skyscreamer:jsonassert:jar</title>
<path fill="none" stroke="#000000" d="M2999.7955,-252C2999.7955,-252 2944.2185,-252 2944.2185,-252 2938.2185,-252 2932.2185,-246 2932.2185,-240 2932.2185,-240 2932.2185,-228 2932.2185,-228 2932.2185,-222 2938.2185,-216 2944.2185,-216 2944.2185,-216 2999.7955,-216 2999.7955,-216 3005.7955,-216 3011.7955,-222 3011.7955,-228 3011.7955,-228 3011.7955,-240 3011.7955,-240 3011.7955,-246 3005.7955,-252 2999.7955,-252"/>
<text text-anchor="start" x="2940.1129" y="-234.4" font-family="Helvetica,sans-Serif" font-size="14.00" fill="#000000">jsonassert</text>
<text text-anchor="start" x="2960.6195" y="-224" font-family="Helvetica,sans-Serif" font-size="10.00" fill="#000000">(test)</text>
</g>
<!-- org.springframework.boot:spring&#45;boot&#45;starter&#45;test:jar&#45;&gt;org.skyscreamer:jsonassert:jar -->
<g id="edge58" class="edge">
<title>org.springframework.boot:spring-boot-starter-test:jar-&gt;org.skyscreamer:jsonassert:jar</title>
<path fill="none" stroke="#000000" d="M2680.7089,-296.9024C2743.8629,-288.6539 2834.7655,-274.6523 2922.2651,-251.9402"/>
<polygon fill="#000000" stroke="#000000" points="2923.3128,-255.2836 2932.0895,-249.349 2921.5276,-248.5151 2923.3128,-255.2836"/>
</g>
<!-- org.springframework:spring&#45;core:jar -->
<g id="node61" class="node">
<title>org.springframework:spring-core:jar</title>
<path fill="none" stroke="#000000" d="M3104.0084,-252C3104.0084,-252 3042.0056,-252 3042.0056,-252 3036.0056,-252 3030.0056,-246 3030.0056,-240 3030.0056,-240 3030.0056,-228 3030.0056,-228 3030.0056,-222 3036.0056,-216 3042.0056,-216 3042.0056,-216 3104.0084,-216 3104.0084,-216 3110.0084,-216 3116.0084,-222 3116.0084,-228 3116.0084,-228 3116.0084,-240 3116.0084,-240 3116.0084,-246 3110.0084,-252 3104.0084,-252"/>
<text text-anchor="start" x="3038.0063" y="-229.8" font-family="Helvetica,sans-Serif" font-size="14.00" fill="#000000">spring-core</text>
</g>
<!-- org.springframework.boot:spring&#45;boot&#45;starter&#45;test:jar&#45;&gt;org.springframework:spring&#45;core:jar -->
<g id="edge60" class="edge">
<title>org.springframework.boot:spring-boot-starter-test:jar-&gt;org.springframework:spring-core:jar</title>
<path fill="none" stroke="#000000" d="M2680.8618,-300.6847C2763.4945,-294.0233 2896.9976,-280.1766 3019.836,-252.0217"/>
<polygon fill="#000000" stroke="#000000" points="3020.846,-255.3803 3029.7912,-249.7027 3019.2578,-248.5628 3020.846,-255.3803"/>
</g>
<!-- org.springframework:spring&#45;test:jar -->
<g id="node63" class="node">
<title>org.springframework:spring-test:jar</title>
<path fill="none" stroke="#000000" d="M3203.8471,-252C3203.8471,-252 3146.1669,-252 3146.1669,-252 3140.1669,-252 3134.1669,-246 3134.1669,-240 3134.1669,-240 3134.1669,-228 3134.1669,-228 3134.1669,-222 3140.1669,-216 3146.1669,-216 3146.1669,-216 3203.8471,-216 3203.8471,-216 3209.8471,-216 3215.8471,-222 3215.8471,-228 3215.8471,-228 3215.8471,-240 3215.8471,-240 3215.8471,-246 3209.8471,-252 3203.8471,-252"/>
<text text-anchor="start" x="3142.3373" y="-234.4" font-family="Helvetica,sans-Serif" font-size="14.00" fill="#000000">spring-test</text>
<text text-anchor="start" x="3163.6195" y="-224" font-family="Helvetica,sans-Serif" font-size="10.00" fill="#000000">(test)</text>
</g>
<!-- org.springframework.boot:spring&#45;boot&#45;starter&#45;test:jar&#45;&gt;org.springframework:spring&#45;test:jar -->
<g id="edge61" class="edge">
<title>org.springframework.boot:spring-boot-starter-test:jar-&gt;org.springframework:spring-test:jar</title>
<path fill="none" stroke="#000000" d="M2680.9467,-303.7981C2782.0736,-299.6572 2962.5608,-287.8145 3124.1917,-251.8492"/>
<polygon fill="#000000" stroke="#000000" points="3125.337,-255.1786 3134.3182,-249.5583 3123.7924,-248.3512 3125.337,-255.1786"/>
</g>
<!-- org.xmlunit:xmlunit&#45;core:jar -->
<g id="node64" class="node">
<title>org.xmlunit:xmlunit-core:jar</title>
<path fill="none" stroke="#000000" d="M3314.2233,-252C3314.2233,-252 3245.7907,-252 3245.7907,-252 3239.7907,-252 3233.7907,-246 3233.7907,-240 3233.7907,-240 3233.7907,-228 3233.7907,-228 3233.7907,-222 3239.7907,-216 3245.7907,-216 3245.7907,-216 3314.2233,-216 3314.2233,-216 3320.2233,-216 3326.2233,-222 3326.2233,-228 3326.2233,-228 3326.2233,-240 3326.2233,-240 3326.2233,-246 3320.2233,-252 3314.2233,-252"/>
<text text-anchor="start" x="3241.899" y="-234.4" font-family="Helvetica,sans-Serif" font-size="14.00" fill="#000000">xmlunit-core</text>
<text text-anchor="start" x="3268.6195" y="-224" font-family="Helvetica,sans-Serif" font-size="10.00" fill="#000000">(test)</text>
</g>
<!-- org.springframework.boot:spring&#45;boot&#45;starter&#45;test:jar&#45;&gt;org.xmlunit:xmlunit&#45;core:jar -->
<g id="edge62" class="edge">
<title>org.springframework.boot:spring-boot-starter-test:jar-&gt;org.xmlunit:xmlunit-core:jar</title>
<path fill="none" stroke="#000000" d="M2680.7645,-301.4372C2820.2258,-292.9922 3106.2274,-273.9387 3223.8505,-251.9176"/>
<polygon fill="#000000" stroke="#000000" points="3224.5596,-255.3453 3233.6983,-249.9847 3223.2114,-248.4763 3224.5596,-255.3453"/>
</g>
<!-- net.minidev:accessors&#45;smart:jar -->
<g id="node37" class="node">
<title>net.minidev:accessors-smart:jar</title>
<path fill="none" stroke="#000000" d="M2047.1709,-108C2047.1709,-108 1952.8431,-108 1952.8431,-108 1946.8431,-108 1940.8431,-102 1940.8431,-96 1940.8431,-96 1940.8431,-84 1940.8431,-84 1940.8431,-78 1946.8431,-72 1952.8431,-72 1952.8431,-72 2047.1709,-72 2047.1709,-72 2053.1709,-72 2059.1709,-78 2059.1709,-84 2059.1709,-84 2059.1709,-96 2059.1709,-96 2059.1709,-102 2053.1709,-108 2047.1709,-108"/>
<text text-anchor="start" x="1948.6753" y="-90.4" font-family="Helvetica,sans-Serif" font-size="14.00" fill="#000000">accessors-smart</text>
<text text-anchor="start" x="1988.6195" y="-80" font-family="Helvetica,sans-Serif" font-size="10.00" fill="#000000">(test)</text>
</g>
<!-- org.ow2.asm:asm:jar -->
<g id="node38" class="node">
<title>org.ow2.asm:asm:jar</title>
<path fill="none" stroke="#000000" d="M2015.007,-36C2015.007,-36 1985.007,-36 1985.007,-36 1979.007,-36 1973.007,-30 1973.007,-24 1973.007,-24 1973.007,-12 1973.007,-12 1973.007,-6 1979.007,0 1985.007,0 1985.007,0 2015.007,0 2015.007,0 2021.007,0 2027.007,-6 2027.007,-12 2027.007,-12 2027.007,-24 2027.007,-24 2027.007,-30 2021.007,-36 2015.007,-36"/>
<text text-anchor="start" x="1986.7854" y="-18.4" font-family="Helvetica,sans-Serif" font-size="14.00" fill="#000000">asm</text>
<text text-anchor="start" x="1988.6195" y="-8" font-family="Helvetica,sans-Serif" font-size="10.00" fill="#000000">(test)</text>
</g>
<!-- net.minidev:accessors&#45;smart:jar&#45;&gt;org.ow2.asm:asm:jar -->
<g id="edge35" class="edge">
<title>net.minidev:accessors-smart:jar-&gt;org.ow2.asm:asm:jar</title>
<path fill="none" stroke="#000000" d="M2000.007,-71.8314C2000.007,-64.131 2000.007,-54.9743 2000.007,-46.4166"/>
<polygon fill="#000000" stroke="#000000" points="2003.5071,-46.4132 2000.007,-36.4133 1996.5071,-46.4133 2003.5071,-46.4132"/>
</g>
<!-- net.minidev:json&#45;smart:jar -->
<g id="node39" class="node">
<title>net.minidev:json-smart:jar</title>
<path fill="none" stroke="#000000" d="M2028.8345,-180C2028.8345,-180 1971.1795,-180 1971.1795,-180 1965.1795,-180 1959.1795,-174 1959.1795,-168 1959.1795,-168 1959.1795,-156 1959.1795,-156 1959.1795,-150 1965.1795,-144 1971.1795,-144 1971.1795,-144 2028.8345,-144 2028.8345,-144 2034.8345,-144 2040.8345,-150 2040.8345,-156 2040.8345,-156 2040.8345,-168 2040.8345,-168 2040.8345,-174 2034.8345,-180 2028.8345,-180"/>
<text text-anchor="start" x="1967.3436" y="-162.4" font-family="Helvetica,sans-Serif" font-size="14.00" fill="#000000">json-smart</text>
<text text-anchor="start" x="1988.6195" y="-152" font-family="Helvetica,sans-Serif" font-size="10.00" fill="#000000">(test)</text>
</g>
<!-- net.minidev:json&#45;smart:jar&#45;&gt;net.minidev:accessors&#45;smart:jar -->
<g id="edge36" class="edge">
<title>net.minidev:json-smart:jar-&gt;net.minidev:accessors-smart:jar</title>
<path fill="none" stroke="#000000" d="M2000.007,-143.8314C2000.007,-136.131 2000.007,-126.9743 2000.007,-118.4166"/>
<polygon fill="#000000" stroke="#000000" points="2003.5071,-118.4132 2000.007,-108.4133 1996.5071,-118.4133 2003.5071,-118.4132"/>
</g>
<!-- com.jayway.jsonpath:json&#45;path:jar&#45;&gt;net.minidev:json&#45;smart:jar -->
<g id="edge37" class="edge">
<title>com.jayway.jsonpath:json-path:jar-&gt;net.minidev:json-smart:jar</title>
<path fill="none" stroke="#000000" d="M2115.212,-216.5708C2094.7624,-206.8841 2069.0978,-194.7272 2047.1856,-184.3477"/>
<polygon fill="#000000" stroke="#000000" points="2048.5862,-181.1384 2038.0505,-180.0206 2045.5895,-187.4646 2048.5862,-181.1384"/>
</g>
<!-- org.slf4j:slf4j&#45;api:jar -->
<g id="node41" class="node">
<title>org.slf4j:slf4j-api:jar</title>
<path fill="none" stroke="#000000" d="M2111.2262,-180C2111.2262,-180 2070.7878,-180 2070.7878,-180 2064.7878,-180 2058.7878,-174 2058.7878,-168 2058.7878,-168 2058.7878,-156 2058.7878,-156 2058.7878,-150 2064.7878,-144 2070.7878,-144 2070.7878,-144 2111.2262,-144 2111.2262,-144 2117.2262,-144 2123.2262,-150 2123.2262,-156 2123.2262,-156 2123.2262,-168 2123.2262,-168 2123.2262,-174 2117.2262,-180 2111.2262,-180"/>
<text text-anchor="start" x="2066.8976" y="-157.8" font-family="Helvetica,sans-Serif" font-size="14.00" fill="#000000">slf4j-api</text>
</g>
<!-- com.jayway.jsonpath:json&#45;path:jar&#45;&gt;org.slf4j:slf4j&#45;api:jar -->
<g id="edge38" class="edge">
<title>com.jayway.jsonpath:json-path:jar-&gt;org.slf4j:slf4j-api:jar</title>
<path fill="none" stroke="#000000" d="M2136.6141,-215.8314C2129.5166,-207.454 2120.959,-197.3531 2113.183,-188.1749"/>
<polygon fill="#000000" stroke="#000000" points="2115.7418,-185.7807 2106.6071,-180.4133 2110.4009,-190.3056 2115.7418,-185.7807"/>
</g>
<!-- jakarta.activation:jakarta.activation&#45;api:jar -->
<g id="node43" class="node">
<title>jakarta.activation:jakarta.activation-api:jar</title>
<path fill="none" stroke="#000000" d="M2273.3608,-180C2273.3608,-180 2152.6532,-180 2152.6532,-180 2146.6532,-180 2140.6532,-174 2140.6532,-168 2140.6532,-168 2140.6532,-156 2140.6532,-156 2140.6532,-150 2146.6532,-144 2152.6532,-144 2152.6532,-144 2273.3608,-144 2273.3608,-144 2279.3608,-144 2285.3608,-150 2285.3608,-156 2285.3608,-156 2285.3608,-168 2285.3608,-168 2285.3608,-174 2279.3608,-180 2273.3608,-180"/>
<text text-anchor="start" x="2148.8303" y="-162.4" font-family="Helvetica,sans-Serif" font-size="14.00" fill="#000000">jakarta.activation-api</text>
<text text-anchor="start" x="2201.6195" y="-152" font-family="Helvetica,sans-Serif" font-size="10.00" fill="#000000">(test)</text>
</g>
<!-- jakarta.xml.bind:jakarta.xml.bind&#45;api:jar&#45;&gt;jakarta.activation:jakarta.activation&#45;api:jar -->
<g id="edge40" class="edge">
<title>jakarta.xml.bind:jakarta.xml.bind-api:jar-&gt;jakarta.activation:jakarta.activation-api:jar</title>
<path fill="none" stroke="#000000" d="M2259.3618,-215.8314C2252.1479,-207.454 2243.45,-197.3531 2235.5465,-188.1749"/>
<polygon fill="#000000" stroke="#000000" points="2238.0403,-185.7071 2228.8629,-180.4133 2232.7359,-190.2748 2238.0403,-185.7071"/>
</g>
<!-- org.junit.jupiter:junit&#45;jupiter&#45;api:jar -->
<g id="node46" class="node">
<title>org.junit.jupiter:junit-jupiter-api:jar</title>
<path fill="none" stroke="#000000" d="M2398.7814,-180C2398.7814,-180 2315.2326,-180 2315.2326,-180 2309.2326,-180 2303.2326,-174 2303.2326,-168 2303.2326,-168 2303.2326,-156 2303.2326,-156 2303.2326,-150 2309.2326,-144 2315.2326,-144 2315.2326,-144 2398.7814,-144 2398.7814,-144 2404.7814,-144 2410.7814,-150 2410.7814,-156 2410.7814,-156 2410.7814,-168 2410.7814,-168 2410.7814,-174 2404.7814,-180 2398.7814,-180"/>
<text text-anchor="start" x="2311.1199" y="-162.4" font-family="Helvetica,sans-Serif" font-size="14.00" fill="#000000">junit-jupiter-api</text>
<text text-anchor="start" x="2345.6195" y="-152" font-family="Helvetica,sans-Serif" font-size="10.00" fill="#000000">(test)</text>
</g>
<!-- org.apiguardian:apiguardian&#45;api:jar -->
<g id="node47" class="node">
<title>org.apiguardian:apiguardian-api:jar</title>
<path fill="none" stroke="#000000" d="M2276.475,-108C2276.475,-108 2187.539,-108 2187.539,-108 2181.539,-108 2175.539,-102 2175.539,-96 2175.539,-96 2175.539,-84 2175.539,-84 2175.539,-78 2181.539,-72 2187.539,-72 2187.539,-72 2276.475,-72 2276.475,-72 2282.475,-72 2288.475,-78 2288.475,-84 2288.475,-84 2288.475,-96 2288.475,-96 2288.475,-102 2282.475,-108 2276.475,-108"/>
<text text-anchor="start" x="2183.7735" y="-90.4" font-family="Helvetica,sans-Serif" font-size="14.00" fill="#000000">apiguardian-api</text>
<text text-anchor="start" x="2220.6195" y="-80" font-family="Helvetica,sans-Serif" font-size="10.00" fill="#000000">(test)</text>
</g>
<!-- org.junit.jupiter:junit&#45;jupiter&#45;api:jar&#45;&gt;org.apiguardian:apiguardian&#45;api:jar -->
<g id="edge44" class="edge">
<title>org.junit.jupiter:junit-jupiter-api:jar-&gt;org.apiguardian:apiguardian-api:jar</title>
<path fill="none" stroke="#000000" d="M2325.4642,-143.8314C2309.3279,-134.5368 2289.5084,-123.1208 2272.2798,-113.1971"/>
<polygon fill="#000000" stroke="#000000" points="2273.952,-110.1212 2263.5397,-108.1628 2270.4581,-116.187 2273.952,-110.1212"/>
</g>
<!-- org.opentest4j:opentest4j:jar -->
<g id="node48" class="node">
<title>org.opentest4j:opentest4j:jar</title>
<path fill="none" stroke="#000000" d="M2375.0915,-108C2375.0915,-108 2318.9225,-108 2318.9225,-108 2312.9225,-108 2306.9225,-102 2306.9225,-96 2306.9225,-96 2306.9225,-84 2306.9225,-84 2306.9225,-78 2312.9225,-72 2318.9225,-72 2318.9225,-72 2375.0915,-72 2375.0915,-72 2381.0915,-72 2387.0915,-78 2387.0915,-84 2387.0915,-84 2387.0915,-96 2387.0915,-96 2387.0915,-102 2381.0915,-108 2375.0915,-108"/>
<text text-anchor="start" x="2314.7153" y="-90.4" font-family="Helvetica,sans-Serif" font-size="14.00" fill="#000000">opentest4j</text>
<text text-anchor="start" x="2335.6195" y="-80" font-family="Helvetica,sans-Serif" font-size="10.00" fill="#000000">(test)</text>
</g>
<!-- org.junit.jupiter:junit&#45;jupiter&#45;api:jar&#45;&gt;org.opentest4j:opentest4j:jar -->
<g id="edge45" class="edge">
<title>org.junit.jupiter:junit-jupiter-api:jar-&gt;org.opentest4j:opentest4j:jar</title>
<path fill="none" stroke="#000000" d="M2354.4836,-143.8314C2353.4141,-136.131 2352.1423,-126.9743 2350.9538,-118.4166"/>
<polygon fill="#000000" stroke="#000000" points="2354.4069,-117.8367 2349.5644,-108.4133 2347.4734,-118.7997 2354.4069,-117.8367"/>
</g>
<!-- org.junit.platform:junit&#45;platform&#45;commons:jar -->
<g id="node49" class="node">
<title>org.junit.platform:junit-platform-commons:jar</title>
<path fill="none" stroke="#000000" d="M2555.2231,-108C2555.2231,-108 2416.7909,-108 2416.7909,-108 2410.7909,-108 2404.7909,-102 2404.7909,-96 2404.7909,-96 2404.7909,-84 2404.7909,-84 2404.7909,-78 2410.7909,-72 2416.7909,-72 2416.7909,-72 2555.2231,-72 2555.2231,-72 2561.2231,-72 2567.2231,-78 2567.2231,-84 2567.2231,-84 2567.2231,-96 2567.2231,-96 2567.2231,-102 2561.2231,-108 2555.2231,-108"/>
<text text-anchor="start" x="2412.899" y="-90.4" font-family="Helvetica,sans-Serif" font-size="14.00" fill="#000000">junit-platform-commons</text>
<text text-anchor="start" x="2474.6195" y="-80" font-family="Helvetica,sans-Serif" font-size="10.00" fill="#000000">(test)</text>
</g>
<!-- org.junit.jupiter:junit&#45;jupiter&#45;api:jar&#45;&gt;org.junit.platform:junit&#45;platform&#45;commons:jar -->
<g id="edge46" class="edge">
<title>org.junit.jupiter:junit-jupiter-api:jar-&gt;org.junit.platform:junit-platform-commons:jar</title>
<path fill="none" stroke="#000000" d="M2389.5591,-143.8314C2406.2118,-134.5368 2426.6655,-123.1208 2444.4455,-113.1971"/>
<polygon fill="#000000" stroke="#000000" points="2446.4391,-116.0927 2453.4653,-108.1628 2443.0275,-109.9803 2446.4391,-116.0927"/>
</g>
<!-- org.junit.jupiter:junit&#45;jupiter:jar&#45;&gt;org.junit.jupiter:junit&#45;jupiter&#45;api:jar -->
<g id="edge47" class="edge">
<title>org.junit.jupiter:junit-jupiter:jar-&gt;org.junit.jupiter:junit-jupiter-api:jar</title>
<path fill="none" stroke="#000000" d="M2559.7837,-218.8375C2556.8213,-217.8539 2553.8741,-216.8987 2551.007,-216 2496.3161,-198.8577 2479.8049,-196.5037 2420.8002,-180.1938"/>
<polygon fill="#000000" stroke="#000000" points="2421.5255,-176.7627 2410.9532,-177.452 2419.6478,-183.5061 2421.5255,-176.7627"/>
</g>
<!-- org.junit.jupiter:junit&#45;jupiter&#45;params:jar -->
<g id="node51" class="node">
<title>org.junit.jupiter:junit-jupiter-params:jar</title>
<path fill="none" stroke="#000000" d="M2552.7786,-180C2552.7786,-180 2441.2354,-180 2441.2354,-180 2435.2354,-180 2429.2354,-174 2429.2354,-168 2429.2354,-168 2429.2354,-156 2429.2354,-156 2429.2354,-150 2435.2354,-144 2441.2354,-144 2441.2354,-144 2552.7786,-144 2552.7786,-144 2558.7786,-144 2564.7786,-150 2564.7786,-156 2564.7786,-156 2564.7786,-168 2564.7786,-168 2564.7786,-174 2558.7786,-180 2552.7786,-180"/>
<text text-anchor="start" x="2437.1213" y="-162.4" font-family="Helvetica,sans-Serif" font-size="14.00" fill="#000000">junit-jupiter-params</text>
<text text-anchor="start" x="2485.6195" y="-152" font-family="Helvetica,sans-Serif" font-size="10.00" fill="#000000">(test)</text>
</g>
<!-- org.junit.jupiter:junit&#45;jupiter:jar&#45;&gt;org.junit.jupiter:junit&#45;jupiter&#45;params:jar -->
<g id="edge48" class="edge">
<title>org.junit.jupiter:junit-jupiter:jar-&gt;org.junit.jupiter:junit-jupiter-params:jar</title>
<path fill="none" stroke="#000000" d="M2575.5111,-215.8314C2562.3296,-206.7927 2546.2223,-195.7476 2532.0359,-186.0198"/>
<polygon fill="#000000" stroke="#000000" points="2533.7211,-182.9316 2523.4945,-180.1628 2529.7624,-188.7047 2533.7211,-182.9316"/>
</g>
<!-- org.junit.jupiter:junit&#45;jupiter&#45;engine:jar -->
<g id="node52" class="node">
<title>org.junit.jupiter:junit-jupiter-engine:jar</title>
<path fill="none" stroke="#000000" d="M2701.6291,-180C2701.6291,-180 2594.3849,-180 2594.3849,-180 2588.3849,-180 2582.3849,-174 2582.3849,-168 2582.3849,-168 2582.3849,-156 2582.3849,-156 2582.3849,-150 2588.3849,-144 2594.3849,-144 2594.3849,-144 2701.6291,-144 2701.6291,-144 2707.6291,-144 2713.6291,-150 2713.6291,-156 2713.6291,-156 2713.6291,-168 2713.6291,-168 2713.6291,-174 2707.6291,-180 2701.6291,-180"/>
<text text-anchor="start" x="2590.446" y="-162.4" font-family="Helvetica,sans-Serif" font-size="14.00" fill="#000000">junit-jupiter-engine</text>
<text text-anchor="start" x="2636.6195" y="-152" font-family="Helvetica,sans-Serif" font-size="10.00" fill="#000000">(test)</text>
</g>
<!-- org.junit.jupiter:junit&#45;jupiter:jar&#45;&gt;org.junit.jupiter:junit&#45;jupiter&#45;engine:jar -->
<g id="edge50" class="edge">
<title>org.junit.jupiter:junit-jupiter:jar-&gt;org.junit.jupiter:junit-jupiter-engine:jar</title>
<path fill="none" stroke="#000000" d="M2613.6147,-215.8314C2618.8048,-207.7079 2625.0302,-197.9637 2630.7495,-189.0118"/>
<polygon fill="#000000" stroke="#000000" points="2633.8085,-190.7246 2636.243,-180.4133 2627.9096,-186.9559 2633.8085,-190.7246"/>
</g>
<!-- org.junit.platform:junit&#45;platform&#45;engine:jar -->
<g id="node53" class="node">
<title>org.junit.platform:junit-platform-engine:jar</title>
<path fill="none" stroke="#000000" d="M2716.5743,-108C2716.5743,-108 2597.4397,-108 2597.4397,-108 2591.4397,-108 2585.4397,-102 2585.4397,-96 2585.4397,-96 2585.4397,-84 2585.4397,-84 2585.4397,-78 2591.4397,-72 2597.4397,-72 2597.4397,-72 2716.5743,-72 2716.5743,-72 2722.5743,-72 2728.5743,-78 2728.5743,-84 2728.5743,-84 2728.5743,-96 2728.5743,-96 2728.5743,-102 2722.5743,-108 2716.5743,-108"/>
<text text-anchor="start" x="2593.2237" y="-90.4" font-family="Helvetica,sans-Serif" font-size="14.00" fill="#000000">junit-platform-engine</text>
<text text-anchor="start" x="2645.6195" y="-80" font-family="Helvetica,sans-Serif" font-size="10.00" fill="#000000">(test)</text>
</g>
<!-- org.junit.jupiter:junit&#45;jupiter&#45;engine:jar&#45;&gt;org.junit.platform:junit&#45;platform&#45;engine:jar -->
<g id="edge49" class="edge">
<title>org.junit.jupiter:junit-jupiter-engine:jar-&gt;org.junit.platform:junit-platform-engine:jar</title>
<path fill="none" stroke="#000000" d="M2650.2781,-143.8314C2651.2406,-136.131 2652.3852,-126.9743 2653.4549,-118.4166"/>
<polygon fill="#000000" stroke="#000000" points="2656.9379,-118.7702 2654.7053,-108.4133 2649.9919,-117.9019 2656.9379,-118.7702"/>
</g>
<!-- net.bytebuddy:byte&#45;buddy:jar -->
<g id="node55" class="node">
<title>net.bytebuddy:byte-buddy:jar</title>
<path fill="none" stroke="#000000" d="M2804.7542,-180C2804.7542,-180 2743.2598,-180 2743.2598,-180 2737.2598,-180 2731.2598,-174 2731.2598,-168 2731.2598,-168 2731.2598,-156 2731.2598,-156 2731.2598,-150 2737.2598,-144 2743.2598,-144 2743.2598,-144 2804.7542,-144 2804.7542,-144 2810.7542,-144 2816.7542,-150 2816.7542,-156 2816.7542,-156 2816.7542,-168 2816.7542,-168 2816.7542,-174 2810.7542,-180 2804.7542,-180"/>
<text text-anchor="start" x="2739.3836" y="-162.4" font-family="Helvetica,sans-Serif" font-size="14.00" fill="#000000">byte-buddy</text>
<text text-anchor="start" x="2762.6195" y="-152" font-family="Helvetica,sans-Serif" font-size="10.00" fill="#000000">(test)</text>
</g>
<!-- org.mockito:mockito&#45;core:jar&#45;&gt;net.bytebuddy:byte&#45;buddy:jar -->
<g id="edge52" class="edge">
<title>org.mockito:mockito-core:jar-&gt;net.bytebuddy:byte-buddy:jar</title>
<path fill="none" stroke="#000000" d="M2726.1569,-215.8314C2733.6787,-207.3694 2742.7635,-197.1489 2750.9874,-187.8971"/>
<polygon fill="#000000" stroke="#000000" points="2753.6119,-190.2127 2757.6397,-180.4133 2748.38,-185.5621 2753.6119,-190.2127"/>
</g>
<!-- net.bytebuddy:byte&#45;buddy&#45;agent:jar -->
<g id="node56" class="node">
<title>net.bytebuddy:byte-buddy-agent:jar</title>
<path fill="none" stroke="#000000" d="M2947.4354,-180C2947.4354,-180 2846.5786,-180 2846.5786,-180 2840.5786,-180 2834.5786,-174 2834.5786,-168 2834.5786,-168 2834.5786,-156 2834.5786,-156 2834.5786,-150 2840.5786,-144 2846.5786,-144 2846.5786,-144 2947.4354,-144 2947.4354,-144 2953.4354,-144 2959.4354,-150 2959.4354,-156 2959.4354,-156 2959.4354,-168 2959.4354,-168 2959.4354,-174 2953.4354,-180 2947.4354,-180"/>
<text text-anchor="start" x="2842.5428" y="-162.4" font-family="Helvetica,sans-Serif" font-size="14.00" fill="#000000">byte-buddy-agent</text>
<text text-anchor="start" x="2885.6195" y="-152" font-family="Helvetica,sans-Serif" font-size="10.00" fill="#000000">(test)</text>
</g>
<!-- org.mockito:mockito&#45;core:jar&#45;&gt;net.bytebuddy:byte&#45;buddy&#45;agent:jar -->
<g id="edge53" class="edge">
<title>org.mockito:mockito-core:jar-&gt;net.bytebuddy:byte-buddy-agent:jar</title>
<path fill="none" stroke="#000000" d="M2757.195,-215.8314C2782.5386,-206.0734 2813.9555,-193.977 2840.5844,-183.7242"/>
<polygon fill="#000000" stroke="#000000" points="2842.0838,-186.8974 2850.1583,-180.038 2839.5685,-180.3649 2842.0838,-186.8974"/>
</g>
<!-- org.objenesis:objenesis:jar -->
<g id="node57" class="node">
<title>org.objenesis:objenesis:jar</title>
<path fill="none" stroke="#000000" d="M3040.6333,-180C3040.6333,-180 2989.3807,-180 2989.3807,-180 2983.3807,-180 2977.3807,-174 2977.3807,-168 2977.3807,-168 2977.3807,-156 2977.3807,-156 2977.3807,-150 2983.3807,-144 2989.3807,-144 2989.3807,-144 3040.6333,-144 3040.6333,-144 3046.6333,-144 3052.6333,-150 3052.6333,-156 3052.6333,-156 3052.6333,-168 3052.6333,-168 3052.6333,-174 3046.6333,-180 3040.6333,-180"/>
<text text-anchor="start" x="2985.4439" y="-162.4" font-family="Helvetica,sans-Serif" font-size="14.00" fill="#000000">objenesis</text>
<text text-anchor="start" x="3003.6195" y="-152" font-family="Helvetica,sans-Serif" font-size="10.00" fill="#000000">(test)</text>
</g>
<!-- org.mockito:mockito&#45;core:jar&#45;&gt;org.objenesis:objenesis:jar -->
<g id="edge54" class="edge">
<title>org.mockito:mockito-core:jar-&gt;org.objenesis:objenesis:jar</title>
<path fill="none" stroke="#000000" d="M2758.0856,-218.3387C2761.0934,-217.5077 2764.0849,-216.7199 2767.007,-216 2852.1151,-195.0326 2878.7633,-203.6875 2967.5795,-179.822"/>
<polygon fill="#000000" stroke="#000000" points="2968.5338,-183.1896 2977.2479,-177.1633 2966.6778,-176.4402 2968.5338,-183.1896"/>
</g>
<!-- com.vaadin.external.google:android&#45;json:jar -->
<g id="node60" class="node">
<title>com.vaadin.external.google:android-json:jar</title>
<path fill="none" stroke="#000000" d="M3151.5196,-180C3151.5196,-180 3082.4944,-180 3082.4944,-180 3076.4944,-180 3070.4944,-174 3070.4944,-168 3070.4944,-168 3070.4944,-156 3070.4944,-156 3070.4944,-150 3076.4944,-144 3082.4944,-144 3082.4944,-144 3151.5196,-144 3151.5196,-144 3157.5196,-144 3163.5196,-150 3163.5196,-156 3163.5196,-156 3163.5196,-168 3163.5196,-168 3163.5196,-174 3157.5196,-180 3151.5196,-180"/>
<text text-anchor="start" x="3078.5007" y="-162.4" font-family="Helvetica,sans-Serif" font-size="14.00" fill="#000000">android-json</text>
<text text-anchor="start" x="3105.6195" y="-152" font-family="Helvetica,sans-Serif" font-size="10.00" fill="#000000">(test)</text>
</g>
<!-- org.skyscreamer:jsonassert:jar&#45;&gt;com.vaadin.external.google:android&#45;json:jar -->
<g id="edge57" class="edge">
<title>org.skyscreamer:jsonassert:jar-&gt;com.vaadin.external.google:android-json:jar</title>
<path fill="none" stroke="#000000" d="M3008.5966,-215.8314C3027.7309,-206.3302 3051.3299,-194.6121 3071.6192,-184.5374"/>
<polygon fill="#000000" stroke="#000000" points="3073.2805,-187.6203 3080.6805,-180.038 3070.1673,-181.3506 3073.2805,-187.6203"/>
</g>
<!-- org.springframework:spring&#45;jcl:jar -->
<g id="node62" class="node">
<title>org.springframework:spring-jcl:jar</title>
<path fill="none" stroke="#000000" d="M3241.9958,-180C3241.9958,-180 3194.0182,-180 3194.0182,-180 3188.0182,-180 3182.0182,-174 3182.0182,-168 3182.0182,-168 3182.0182,-156 3182.0182,-156 3182.0182,-150 3188.0182,-144 3194.0182,-144 3194.0182,-144 3241.9958,-144 3241.9958,-144 3247.9958,-144 3253.9958,-150 3253.9958,-156 3253.9958,-156 3253.9958,-168 3253.9958,-168 3253.9958,-174 3247.9958,-180 3241.9958,-180"/>
<text text-anchor="start" x="3190.0126" y="-157.8" font-family="Helvetica,sans-Serif" font-size="14.00" fill="#000000">spring-jcl</text>
</g>
<!-- org.springframework:spring&#45;core:jar&#45;&gt;org.springframework:spring&#45;jcl:jar -->
<g id="edge59" class="edge">
<title>org.springframework:spring-core:jar-&gt;org.springframework:spring-jcl:jar</title>
<path fill="none" stroke="#000000" d="M3109.5966,-215.8314C3128.8037,-206.2941 3152.5094,-194.5229 3172.8505,-184.4225"/>
<polygon fill="#000000" stroke="#000000" points="3174.5314,-187.4957 3181.9314,-179.9134 3171.4182,-181.2261 3174.5314,-187.4957"/>
</g>
<!-- junit:junit:jar -->
<g id="node65" class="node">
<title>junit:junit:jar</title>
<path fill="none" stroke="#000000" d="M3386.007,-252C3386.007,-252 3356.007,-252 3356.007,-252 3350.007,-252 3344.007,-246 3344.007,-240 3344.007,-240 3344.007,-228 3344.007,-228 3344.007,-222 3350.007,-216 3356.007,-216 3356.007,-216 3386.007,-216 3386.007,-216 3392.007,-216 3398.007,-222 3398.007,-228 3398.007,-228 3398.007,-240 3398.007,-240 3398.007,-246 3392.007,-252 3386.007,-252"/>
<text text-anchor="start" x="3358.1725" y="-234.4" font-family="Helvetica,sans-Serif" font-size="14.00" fill="#000000">junit</text>
<text text-anchor="start" x="3359.6195" y="-224" font-family="Helvetica,sans-Serif" font-size="10.00" fill="#000000">(test)</text>
</g>
<!-- org.hamcrest:hamcrest&#45;core:jar -->
<g id="node66" class="node">
<title>org.hamcrest:hamcrest-core:jar</title>
<path fill="none" stroke="#000000" d="M3411.9539,-180C3411.9539,-180 3330.0601,-180 3330.0601,-180 3324.0601,-180 3318.0601,-174 3318.0601,-168 3318.0601,-168 3318.0601,-156 3318.0601,-156 3318.0601,-150 3324.0601,-144 3330.0601,-144 3330.0601,-144 3411.9539,-144 3411.9539,-144 3417.9539,-144 3423.9539,-150 3423.9539,-156 3423.9539,-156 3423.9539,-168 3423.9539,-168 3423.9539,-174 3417.9539,-180 3411.9539,-180"/>
<text text-anchor="start" x="3326.284" y="-162.4" font-family="Helvetica,sans-Serif" font-size="14.00" fill="#000000">hamcrest-core</text>
<text text-anchor="start" x="3359.6195" y="-152" font-family="Helvetica,sans-Serif" font-size="10.00" fill="#000000">(test)</text>
</g>
<!-- junit:junit:jar&#45;&gt;org.hamcrest:hamcrest&#45;core:jar -->
<g id="edge64" class="edge">
<title>junit:junit:jar-&gt;org.hamcrest:hamcrest-core:jar</title>
<path fill="none" stroke="#000000" d="M3371.007,-215.8314C3371.007,-208.131 3371.007,-198.9743 3371.007,-190.4166"/>
<polygon fill="#000000" stroke="#000000" points="3374.5071,-190.4132 3371.007,-180.4133 3367.5071,-190.4133 3374.5071,-190.4132"/>
</g>
<!-- org.springframework.batch:spring&#45;batch&#45;test:jar&#45;&gt;junit:junit:jar -->
<g id="edge65" class="edge">
<title>org.springframework.batch:spring-batch-test:jar-&gt;junit:junit:jar</title>
<path fill="none" stroke="#000000" d="M3371.007,-287.8314C3371.007,-280.131 3371.007,-270.9743 3371.007,-262.4166"/>
<polygon fill="#000000" stroke="#000000" points="3374.5071,-262.4132 3371.007,-252.4133 3367.5071,-262.4133 3374.5071,-262.4132"/>
</g>
<!-- org.springframework:spring&#45;jdbc:jar -->
<g id="node68" class="node">
<title>org.springframework:spring-jdbc:jar</title>
<path fill="none" stroke="#000000" d="M3488.4556,-252C3488.4556,-252 3427.5584,-252 3427.5584,-252 3421.5584,-252 3415.5584,-246 3415.5584,-240 3415.5584,-240 3415.5584,-228 3415.5584,-228 3415.5584,-222 3421.5584,-216 3427.5584,-216 3427.5584,-216 3488.4556,-216 3488.4556,-216 3494.4556,-216 3500.4556,-222 3500.4556,-228 3500.4556,-228 3500.4556,-240 3500.4556,-240 3500.4556,-246 3494.4556,-252 3488.4556,-252"/>
<text text-anchor="start" x="3423.7833" y="-229.8" font-family="Helvetica,sans-Serif" font-size="14.00" fill="#000000">spring-jdbc</text>
</g>
<!-- org.springframework.batch:spring&#45;batch&#45;test:jar&#45;&gt;org.springframework:spring&#45;jdbc:jar -->
<g id="edge66" class="edge">
<title>org.springframework.batch:spring-batch-test:jar-&gt;org.springframework:spring-jdbc:jar</title>
<path fill="none" stroke="#000000" d="M3392.9608,-287.8314C3403.6765,-278.9632 3416.7259,-268.1637 3428.316,-258.5718"/>
<polygon fill="#000000" stroke="#000000" points="3430.5878,-261.2349 3436.0603,-252.1628 3426.1248,-255.8422 3430.5878,-261.2349"/>
</g>
</g>
</svg>